<?xml version="1.0" encoding="utf-8"?>
<!-- Generator: Adobe Illustrator 17.0.0, SVG Export Plug-In . SVG Version: 6.00 Build 0)  -->
<!DOCTYPE svg PUBLIC "-//W3C//DTD SVG 1.1//EN" "http://www.w3.org/Graphics/SVG/1.1/DTD/svg11.dtd">
<svg version="1.1" id="Layer_1" xmlns="http://www.w3.org/2000/svg" xmlns:xlink="http://www.w3.org/1999/xlink" x="0px" y="0px"
	 width="31.875px" height="30px" viewBox="0 0 31.875 30" enable-background="new 0 0 31.875 30" xml:space="preserve">
<g>
	<g>
		<path fill="#FFFFFF" d="M20.587,16.482c-0.593-0.317-1.19-0.432-1.708-0.26c-0.518,0.172-0.813,0.52-1.053,0.786
			c-0.725,0.803-1.323,0.976-1.896,0.922c-0.591-0.067-1.209-0.418-1.719-0.95l-1.822-1.809c-0.535-0.507-0.889-1.121-0.956-1.707
			c-0.055-0.569,0.119-1.163,0.928-1.883c0.268-0.238,0.618-0.532,0.791-1.046c0.173-0.514,0.057-1.107-0.262-1.696
			c-0.889-1.095-1.703-2.333-2.505-3.256C9.835,5.036,9.039,4.868,8.45,5.051C7.893,5.222,7.464,5.599,7.106,5.944
			c-2.015,2.001-2.861,4.06-2.499,6.134c0.362,2.074,1.798,4.024,3.957,6.168c0.854,0.848,1.793,1.78,2.55,2.533
			c2.159,2.144,4.123,3.57,6.211,3.929c2.088,0.359,4.161-0.481,6.177-2.482c0.347-0.355,0.727-0.781,0.899-1.334
			c0.184-0.586,0.015-1.376-0.535-1.922C22.937,18.173,21.689,17.365,20.587,16.482z M22.927,20.434
			c-0.047,0.149-0.252,0.434-0.518,0.707c-1.18,1.177-3.135,2.498-4.816,2.058c-1.547-0.266-3.321-1.455-5.385-3.505
			c-0.854-0.848-1.793-1.78-2.55-2.533c-2.065-2.05-3.262-3.812-3.53-5.348c-0.443-1.669,0.887-3.61,2.072-4.783
			c0.275-0.264,0.562-0.468,0.712-0.514c0.12-0.039,0.223-0.034,0.364,0.136l2.26,2.934c0.174,0.335,0.159,0.432,0.148,0.464
			c-0.011,0.033-0.105,0.164-0.353,0.385c-1.078,0.959-1.536,2.117-1.435,3.177c0.101,1.055,0.683,1.952,1.4,2.646
			c0.666,0.661,1.175,1.167,1.822,1.809c0.699,0.713,1.602,1.29,2.664,1.391c1.067,0.101,2.234-0.354,3.199-1.425
			c0.223-0.247,0.354-0.34,0.387-0.351c0.032-0.011,0.129-0.026,0.467,0.147l2.955,2.244C23.001,20.285,22.972,20.29,22.927,20.434z
			 M15.089,2.786c-0.445,0.004-0.82,0.398-0.813,0.807c0.021,0.402,0.409,0.748,0.813,0.728c5.843,0,10.563,4.687,10.563,10.489
			c-0.006,0.406,0.365,0.779,0.773,0.779c0.408,0,0.779-0.373,0.773-0.779C27.197,8.179,21.767,2.786,15.089,2.786z M22.56,14.811
			c-0.006,0.406,0.365,0.779,0.773,0.779c0.408,0,0.779-0.373,0.773-0.779c0-4.936-4.046-8.954-9.017-8.954
			c-0.457-0.003-0.82,0.407-0.813,0.808c0.021,0.402,0.409,0.748,0.813,0.727C19.224,7.391,22.56,10.704,22.56,14.811z"/>
	</g>
</g>
</svg>
