<svg xmlns="http://www.w3.org/2000/svg" xmlns:xlink="http://www.w3.org/1999/xlink" version="1.1" x="0px" y="0px" viewBox="0 0 16 20" enable-background="new 0 0 16 16" xml:space="preserve"><g display="none"><g display="inline"><g><g><line fill="#000000" stroke="#00FFFF" stroke-width="0.1" stroke-miterlimit="10" x1="0" y1="0" x2="16" y2="16"/><line fill="#000000" stroke="#00FFFF" stroke-width="0.1" stroke-miterlimit="10" x1="16" y1="0" x2="0" y2="16"/></g></g></g><g display="inline"><g opacity="0.2"><g><polygon fill="#000000" points="16,7 9,7 9,0 7,0 7,7 0,7 0,9 7,9 7,16 9,16 9,9 16,9     "/></g></g></g><g display="inline"><g><g><g><path fill="#000000" d="M14.9,1.1v13.8H1.1V1.1H14.9 M15,1H1v14h14V1L15,1z"/></g></g></g></g><g display="inline"><g><g><g><g><g><path fill="#000000" d="M8,0.1c4.4,0,7.9,3.5,7.9,7.9s-3.5,7.9-7.9,7.9S0.1,12.4,0.1,8S3.6,0.1,8,0.1 M8,0C3.6,0,0,3.6,0,8         c0,4.4,3.6,8,8,8s8-3.6,8-8C16,3.6,12.4,0,8,0L8,0z"/></g></g></g></g></g></g><g display="inline"><g><g><g><path fill="#000000" d="M12.9,3.1v9.8H3.1V3.1H12.9 M13,3H3v10h10V3L13,3z"/></g></g></g></g><g display="inline"><g><g><g><path fill="#000000" d="M10.9,5.1v5.8H5.1V5.1H10.9 M11,5H5v6h6V5L11,5z"/></g></g></g></g></g><g display="none"><polyline display="inline" fill="none" stroke="#000000" stroke-width="2" stroke-linecap="round" stroke-linejoin="round" stroke-miterlimit="10" points="   6.2,4.5 9.8,8 6.2,11.5  "/></g><g><path fill="#000000" d="M5.5,12.2c0.2,0.2,0.5,0.3,0.7,0.3s0.5-0.1,0.7-0.3l3.5-3.5c0.4-0.4,0.4-1,0-1.4L6.9,3.8   c-0.4-0.4-1-0.4-1.4,0c-0.4,0.4-0.4,1,0,1.4L8.4,8l-2.8,2.8C5.1,11.2,5.1,11.9,5.5,12.2z"/></g><text x="0" y="31" fill="#000000" font-size="5px" font-weight="bold" font-family="'Helvetica Neue', Helvetica, Arial-Unicode, Arial, Sans-serif">Created by Jaro Sigrist</text><text x="0" y="36" fill="#000000" font-size="5px" font-weight="bold" font-family="'Helvetica Neue', Helvetica, Arial-Unicode, Arial, Sans-serif">from the Noun Project</text></svg>