<?xml version="1.0" encoding="utf-8"?>
<!-- Generator: Adobe Illustrator 19.0.0, SVG Export Plug-In . SVG Version: 6.00 Build 0)  -->
<svg version="1.1" id="primary-cta-bg" xmlns="http://www.w3.org/2000/svg" xmlns:xlink="http://www.w3.org/1999/xlink" x="0px"
	 y="0px" viewBox="0 0 1366 721" style="enable-background:new 0 0 1366 721;" xml:space="preserve">
<style type="text/css">
	.st0{fill:#FFFFFF;}
</style>
<path id="XMLID_134_" class="st0" d="M1366,70V46c0,0,1-3.5,0-7.5V33h0.5c-0.2-3-0.5-4.5-1-4.9c-1.4-0.1,2.6-1.4-0.1-1.8l-0.9,0.4
	c-1.8,0.1-4.6,0.7-5.6-0.3c1.1,0,1.6-0.1,1.8-0.4l-1.4-0.2l0.4-0.6c-0.4-0.4-1.2-0.7-2.8-0.7c0.2,0.3,0.9,0.4,1,0.7
	c-6.3,0.4-12.1-2.5-13.1-4.3c-6.5,0.2-6.9-1-12,0.1c1.1,1.1-0.2,1,1,1.8c-2.9,0.2-3.6-0.5-5.6-0.7c-0.3-1,3.6-0.3,2.7-1.5
	c-1,0.5-2.3,0.2-0.9,0c-0.8-0.3-6.1-0.6-3.7,0.4c-1.9-0.5-4-0.8-4.7-1.8c-2.2-0.2-6.7,0.5-7.4-0.3c-1.6,0.1-2.1,0.7-1.8,1.5
	c-4.4,0.8-12-1.2-9.2,0.1c-1.4-0.4-4.1-0.3-3.8-1.4c-0.8,0.2-1.7,0.3-1.8,0.8c-4.6-2-17.5,0.2-21.3-0.9c-1.3,0.2,0.1,0.3,0,0.7
	c-3.9-0.2-7.2-1.6-10.2-0.3c-2.6-1.3-7.3-0.1-8.4-1c-4,1.4-9.5-0.5-12.9,0.9l-0.4,0.6l-0.5-0.5c-1.7-0.1-1.9,0.4-0.9,0.4
	c-5.1,1.2-21.5-2.1-26.8,1c-1.6-1.3-5.3,0.5-4.7-1.4c-7-0.4-5.9,2.3-12,2.3c-5.8-1.3-13.3-0.1-18.5-0.2c-0.7,0-1.8-0.7-1.9-0.7
	c-1.8,0.1,0.7,0.5,0,0.7c-1,0.3-9.4,0.1-13.9,0.1c-3.6,0.1-6.6,0.5-9.2,1.6c-1.9-0.1-1.9-1-2.8-1.4c-4.9,0.4-12.8,1.4-16.6,0.2
	l-0.4,0.6l-0.5-0.5c-3.3,1-15.5,1.5-17.6-0.9c3.1,0,3.1-1.2,6.4-1.2c0,0.9,0.7,0.4,1.9,0.3c0,0.4,0,0.7,0,1.1
	c2.5-0.6,3.3,0.7,7.4-0.1l-0.5-0.5l1.4,0.2c1.1-0.5,0.3-0.6,0-1.1l-1.4,0.2l0.4-0.6c-1.7-0.3-3.4-0.6-5.6-0.7
	c-2.4-1.7,6.7-2.9,9.2-1.2c0.9-0.2,0.9-0.9,2.8-0.8c0-1-3-0.8-2.8-1.8c1.9-0.4,3-0.8,6.5-0.1c-3.2,2.8,4.4,1.7,10.2,1.7
	c0,0-1.2-0.7-1-0.7c2.3-0.3,6.6,0.7,8.4,1.7l1.1-0.6l1.7,0.2c-0.1-1.2,2.7-1.4,4.6-1.9c0.4,0.3,0.8,0.6,1.9,0.7l0-0.4l0.9,0
	c1.5-0.1-0.8-0.6,0.9-0.7c0.5,0.2,3.6,0.5,5.5-0.1c-0.5,0.8,1.8,0.5,1.9,1.1c-1.8,1.1-3.8,1.2-6.5,0.4l0,0.4l-0.9,0
	c-1.2,0.4-2.8,0.6-3.7,1.1l1.4,0.2l-0.4,0.6c5.2,0.8,8.2-0.7,15.7,0.2c0-0.2,0-0.5,0-0.7c0.6,0.6,2.8,0.6,3.7,1.1
	c2.4-1.3,3.8-0.6,6.4-1.2c-1.3,0.3-1.7-1.3,2.8,0l-0.4-0.6l1.2-0.5c0.1-1-0.9-2.5,1.8-2.6c-0.8,1.2,3.1,0.5,2.8,1.4
	c-1.1,0.1-0.8,0.7-0.9,1.1l1.4,0.4l-0.4,0.7c2.3-0.1,17.3-0.9,17.6,0.5c2,0.6,3.6-1.3,3.6-1.9l-1.4-0.4l0.4-0.7
	c-3.3-0.1-4.8,0-5.6-0.3c3.5-0.7-2-0.6-1.9-1.1c3.3,0.1,4.4-0.7,7.4-0.8c0,0.9,1.6,1.1,1,2.2l0.5,0.5l-0.4,0.6c1.6,0.2,5,1.2,2.8,0
	c1.1,0.1,1.9,0.5,1.9,1.1c2-0.6,7.6-1.4,9.2-0.1c6-1.4,13.7,1.7,14.7-1.6c3.6,0.3,6.6,1.1,8.3-0.5l-1.4-0.4l0.4-0.7
	c-0.6,0-1.2,0-1.8,0c0.2-0.6-0.9-0.6-1-1.1c1.8-0.6,1.2,0,3.7,0c-0.9,1.1,0.5,1.3,0.5,1.3l1.4,0.2c1,0.3,1.9,0.7,2.8,1.1
	c2.1,0.1,5-1.2,5.5-0.4c2-0.1-1.4-1.1-1.9-1.4c0.1-0.9,3.4-0.6,4.6-1.1l-0.5-0.5l1.4,0.2c1.2-1.5-2-1.1-1.9-2.2
	c2.8-0.6,3.6,0.1,5.5-0.4l-0.5-0.7l1.4-0.4c-2.3-1-6.4-0.1-7.5-2.1c-1.7,0.9-6,3.6-9.2,1.6l-0.9,0.2l-0.9-0.2
	c-1.8,0.7-3.7-0.3-6.5-0.3c3.1-1.4,3.2-0.8,3.6-2.2c-1.7-0.5-3.6-0.1-4.7-1.8l-0.9,0.2l-0.9,0.2c-2.1,0.8-2.5,0.3-4.6,0.8l-0.9,0.2
	l-0.9-0.2c-3.1,1-10.6,0.5-14.8-0.2c0.8-0.3,0.5-1,1.8-1.1c0.1-0.8-3.2,0-2.8,0c-0.9-0.1-1.2-1-1.9-1.1c-4.4-0.6-8.2,0.3-8.3,1.9
	c-0.9,0-1.8,0-2.8,0l-0.4,0.6l-1.4,0.2c0.2,0.3,0.9,0.4,0.9,0.7c0,1.8-7.6-0.4-6.4,1.2c-1.2-0.1-1.5-0.6-2.8-0.7
	c0.8-0.6,2.3-0.8,4.6-0.8c-1.9-1.6-5.9-2.3-7.5-3.9c0.8-0.3,2.8-0.1,2.7-1.5c-5-1-8.7-0.2-12,1.2c1.4,1.1,2.1,0.3,5.6,0.7
	c-1,0.9,0.2,1-1.8,1.8c-2.8-0.4-7.5-0.2-8.3,1.2l1.8,0l0,0.7c2.6-0.3,2.4,0.5,4.6,0.3c0.9,1.7-3,1.5-5.5,1.9
	c0.9-1.2-2.9-0.5-4.6-0.7l0.5,0.5l-1.4-0.2c-1.3,0.9-3.2,0.7-5.5,0.4c0.6-1.2-0.2-1.5,0.9-1.8c0.4,0.5,1.2-0.2,2.8,0
	c0.2,0.3,0.9,0.4,1,0.7l0.9-0.2l0.9,0.2c0.7-0.3,2.5-0.2,2.7-0.8l-1.4-0.2l0.4-0.6c-0.8-0.1-3.2-1.3-1-1.5c-1.4-0.2-1.1-0.4-3.7-0.7
	c2,1.3-6.9,0-12.9,0.5c-0.3,1-2.7,0.8-5.5,1.5c-3,0.4-1.9-0.9-3.7-1.1c-4.1,0.9-1.3,0.7-5.5,1.5c-2.8-0.4-3.4-1.8-8.4-2.1
	c-0.1,1.2-3.6,1-6.4,1.2c0.6,0.3,1.1,0.6,0,0.7l0.5,0.5l-0.4,0.6c2,0,0.4,1.5,1,2.2c2.1-0.6,2-0.9,3.7,0l0.4-0.6l0.5,0.5
	c1.1,0.4,1.9,0.3,1.8-0.4c-1.1-0.1-0.5-0.4,0-0.4c1.5,0.7,8.7-0.4,13.8-1.2c1.8,0.7,4.7,1,8.4,1c-0.5,2.7-8.2,0.6-12,1.2
	c-1.9,0.3-1.2,1.7-3.7,1.1c2-0.7-7.1,0-8.3-0.6l-0.4,0.6l-0.5-0.5c-1.9-0.4-2-0.4-0.9,0.4c-6.6,1.4-17.7,0.9-28.6,2.1l0.5,0.7
	l-1.4,0.4c0,0.9,0.7,0.4,1.9,0.3c-0.6,2.5-9.8,0.8-12.9,1.6l0,0.7l-1.9,0c-0.5,0.8,1.8,0.5,1.9,1.1l1.4,0.2l-0.4,0.6
	c1.6,0,2.4,0.2,2.8,0.7l1.4-0.2l1.4,0.2c2.2,0.7,1-0.1,2.8-0.4c0.4,0.7,3.6,0.3,2.8,1.4c-2.6,0.4-3.8,0.4-6.5,0.1l-1.4,0.2l-1.4-0.2
	c-0.3,0.5-1.6,0.6-1.8,1.1l1.4,0.2l-0.4,0.6c1,0.7,5.5-0.7,6.5,0.7c-2.2-0.1-2,0.7-4.6,0.4c1.9,0.7-0.4,0.7-0.9,1.5
	c-8.9,1.1-19.8,0.8-30.5,1.1c-6.3,0.2-12.7,1.4-18.5,1.3c-6.3-0.1-18.5-1.9-21.2,1.3c1.5-0.3,4,0.7,1.9,0.7c-1-0.4-6.5,1.2-8.3-0.3
	l-1.4,0.2l0.5-0.6c-2.8-0.2-2.7,0.7-5.5,0.4c-2.3-0.5-0.6-0.7-1.9-1.1c-0.2,0.6-1.6,0.9-3.7,0.8c-1.2-0.1-1.5-0.6-2.8-0.7
	c-4.5,1.3-8.9-0.4-13.9-0.6c-2.7-0.1-8.9,0.4-13-0.2c-1.1-0.2-1.8-0.8-2.8-1.1c-6.7-1.7-15.7-0.9-21.4-2.7c-7.4,1-17.5-1.1-26.9-1.2
	c-1.3-1.8,3.7-1.2,5.5-1.9c0.7,2.3,12.5,1.2,17.6,1.6c0.9,0.1,0.9,0.7,2.8,0.7c2.5,0.1,5.1-0.5,7.4-0.1c2.1-1.3,3.9-0.3,7.4,0.3
	c2.5-1.3,7.6-0.1,9.2-0.8l-0.5-0.5l1.4-0.2c0.2-0.6-0.9-0.6-1-1.1c4.5-0.6,5.5,0,11.1-0.5c0,0.4,0,0.7,0,1.1c-0.6,0-1.2,0-1.8,0
	l0.5,0.5L997,21c0.5,0.5,1.5,0.9,2.8,1.1c5.4-2.4,12.1-0.1,19.4-1.7l-0.5-0.7l1.4-0.4c0.2-0.4,0.9-0.2,0.9,0
	c2.5,0.2,1.8-0.7,3.7-0.8c0.2,0.4,1.8,0.2,1.9,0.7c-0.7,0.3-2.5,0.2-2.8,0.8l-0.4,0.4l-0.4,0.4c5.2,1.3,6.3-0.4,12-0.9
	c0.8,0.6,2.3,1,2.8,1.8l1.7-0.2l1.1,0.5c2.3-0.3,0.9-2,4.6-1.9c2.3,1-0.9,2.2,1,2.6c0.7-0.2,1.5-0.4,2.8-0.4l-0.5-0.7l1.4-0.4
	c-0.2-1,2.6-0.9,3.7-1.5c0,0.4,1.1,0.3,1.9,0.3l-0.3-0.6l1.2-0.5c-1.2-0.6-3.7-2.6-2.9-2.9c-4.9-0.1-11-1.8-21.3-1.2
	c-0.2-0.4,0.2-0.7,0.9-0.7c-1.5-0.1-6.7,1.5-7.3,3c-4.3-0.3-9.3,1-10.2,0.1c-8.1,2.9-16.5-2.9-8.5-4.7l-1.4-0.4l0.4-0.7
	c-3-0.4-12.1,0.6-13.9,0.9l0.5,0.5l-1.4,0.2c0.2,0.4,1.7,0.3,2.8,0.3c2.6,2.7-0.6,4.3-8.2,4.1c0.3-1.1-3-0.7-4.7-1
	c-2.9,1.2-10.3,0.5-14.8,1.2c-1.2,0.2-3.6,1.6-4.6,1.5c-2.7-0.1-3.1-1.8-5.6-2.1l-0.4,0.6l-1.4-0.2c-7.8,0.6-12.3,0.8-17.5,1.3
	l0.5,0.5l-0.4,0.6c0.2,0.4,1.8,0.2,1.9,0.7c-3.8,1.7-10.2-1.4-15.7,0.2c-4-1.6-18.7-0.7-18.6-2.7c2.1-0.2,11.3,0.6,12.9-0.5l0.5-0.4
	l0.5-0.4c-2-0.3-3.3-0.9-2.8-2.2c-3.8-0.3-9.1,1.5-12,0.1c-1.2,0.4-2.8,0.6-3.7,1.1c-0.8-0.1-0.9-0.4-1.9-0.3l0,0.4l-0.9,0
	c-1.4,0.3-1.3,1.2-1.8,1.8c-2.7,0.7-7.1-0.6-10.2-0.6c-0.6,0-1.9,0.7-1.8,0.7c-2.4-0.2-4.5-1.4-7.4-1.4c-0.8,0-1.4,0.5-2.8,0.4
	c-2.3-0.1-4.8-0.3-9.3-0.6c-3.2-0.2-7.1-0.7-13-1c-15.5-0.6-34.3-0.1-49-0.2c-3.1,0-5.5,0.1-8.3-0.6c-18.8,1.8-32.6-0.5-49-0.9
	l-0.9,0l0-0.4c-0.8,0.2-1.6,0.3-1.8,0.8c-28.9-0.7-74.9-3-100.9-2.6l0.5,0.5l-0.5,0.6c0.5,1.1-5.1,0.7-1.8,0l-0.5-0.7l1.4-0.4
	c-9.1-2.4-21,0.6-29.6-1.5c-3.4,1.4-5.7-0.2-9.2,0.5c-0.5,0.8-2.6,1.2-0.9,1.8c-1.2-0.4-1.5-0.1-2.8,0c0.6-0.3,1.1-0.7,0-0.7
	c0.9-0.5,1.5,0.1,2.8-0.8c-23.8-1.7-38,1.4-56.4-0.5c-4.7,0.9-13.1,1.4-17.5,1.3c-11.5-0.2-25-0.7-37.9-0.3
	c-14.3,0.4-29.3,1.4-45.3,1.6c-9.2,0.1-19.2-1.4-26.8,1c-2.5,0.3-1.9-0.7-3.7-0.7l-0.5,0.6l-0.5-0.5c-7-0.6-11.7,1.2-16.6,0.9
	c-1.4-0.1-2.4-0.7-2.8-0.7c-1.2-0.1-4.3,1.6-6.5,0.1c-8.2,0.5-17.2,1.6-26.8,1c-4.7-0.3-12.8,0-18.5,0.2
	c-16.1,0.5-33.2,1.9-49.9,2.3c-0.9-0.3-1.4-0.6-1.9-1.1c-4.8,1.8-10.2,0.1-14.8,2c-2.6-0.8-10.6-0.7-13.9,0.1
	c-3.1-2.1-13.2,0.4-19.4-1.6l-1.4-0.2l0.5-0.5c-0.8-0.5-1.4,0.1-3.7-0.3c0.4,0.3,0.8,0.6,1.9,0.7c-1.3,1.5-4.5,0.8-7.1,1.1
	c1.2,0-2.4,1.7-4.9,0.8c-0.4-0.9,4.2,0.2,2.8-1.1c-8.8,0.1-15.3-0.9-22.2-2.3l-1.4,0.2l-1.4,0.2c-1.2,0-2.5,0-3.7,0
	c-2.2-0.5-1.4-0.9-0.9-1.8c-1.5,0-3.1,0-4.6,0c0,0.6,0,1.2,0,1.8c-3-0.5-9,0.2-7.4-2.1c-1.3,0.2-4.8-0.4-4.6,0.4l1.4,0.2l-1.4,0.2
	c0,0.1,0,0.2,0,0.4c-1.8,1.6-5.4-1.1-10.2-0.6c-0.1-0.5-0.2-1,0.9-1.1c-7.4-1.1-15.6-0.2-24-1.2c0.8,1.2-2.4,0.8-2.8,1.5
	c-3.2-0.1,1.7-1.6-0.9-1.4c-1.8-0.7-2.1,0.4-3.7,0.8c-1.1,0-0.8-0.7-0.9-1.1c-7.6-0.6-14.7-0.4-23.1-0.5c-32.1-0.4-70.6-1-100.8-0.4
	l0.5,0.5l-1.4-0.2c0,0.6-0.7,0.9-1.8,1.1c0.3-0.6-0.9-0.6-0.9-1.1l-0.9-0.4C1.4,10.1,7.7,12,7.7,12h-5h-2c0,0,0.2,13,0.2,21H0v41.9
	l-0.2,0L0,75.2V721h1366V70.7C1367,70.2,1366,70,1366,70z M1337.8,30.9c1.6,0.1,2.4-0.7,2.8,0c-3.4,0.5,2.7,0,1.9,0.7l0.9-0.2
	l0.9,0.2c1.2-1,7.9,0.1,9.2-0.8c-0.4,0.3-0.2,0.8-0.4,1.1c0.2,0,0.1,0.1-0.5,0.3c0.3-0.1,0.4-0.2,0.5-0.3c-0.4-0.1-2.1,0.1-2.5,0.2
	c0.3,0.1,0.6,0.1,1.1,0.1c-1.2,0-1.4-0.1-1.1-0.1c-0.7-0.2-1.2-0.5-2.6-0.6c-1.5,0-3,1.4-3.7,0.4l-0.5,0.2l-0.5,0.2
	C1342,31.7,1337.1,32.5,1337.8,30.9z M1322.1,31.5c0,0.2,0,0.5,0,0.7c-0.9,0-1.8,0-2.8,0c0-0.2,0-0.5,0-0.7
	C1320.3,31.5,1321.2,31.5,1322.1,31.5z M1311.9,30.8c0,0.7,2.5,0.4,1.9,1.4c-0.9,0-1.8,0-2.8,0C1310.9,31.4,1309.2,31.2,1311.9,30.8
	z M1169.4,31.2c0-0.2,0.7-0.4,0.9,0c-0.6,0-1.1,0.1-0.9,0.4c0.6,0,1.1,0,0.9,0.4c-2.1,0.1-3.5-0.1-3.7-0.7
	C1168.5,30.5,1167.5,30.5,1169.4,31.2z M1134.2,31.2c0.1,0.2,0.2,0.4,0.9,0.4c1.3,0,2-0.2,2.8-0.4c0,0.2,0,0.5,0,0.7
	c0,0.2-0.1,0.4-0.9,0.4C1136.1,32,1132.1,32.2,1134.2,31.2z M1112.1,32.6c-1.5-0.1-1.9,0.4-2.4,0.4h-2.5
	C1106.6,32,1111.7,31.9,1112.1,32.6z M1052.7,28.1c-0.1,0.4,4,0.7,1,1.1c0.2-1.1-2.6,1-2.8-0.3C1052.1,28.8,1051.7,28.2,1052.7,28.1
	z M909.1,20.8c0.1,0.2,0.1,0.4,0.9,0.4c0-0.2,0.7-0.4,0.9,0C910.1,21.9,906.3,21.3,909.1,20.8z M634.2,14.5c-0.1,0-0.7,0.6-0.9,0
	C633.1,14.1,637.8,13.7,634.2,14.5z M549.1,12.5C552.8,11.2,551.3,13.7,549.1,12.5L549.1,12.5z M346.7,19
	C350.6,19.9,346.1,21.2,346.7,19L346.7,19z M214.5,32.5c0.1,0-0.1,0.3,0,0.4c0.2,0.1,0.3,0.1,0.4,0.2h-1.1
	C213.1,32.7,212.8,32.4,214.5,32.5z M204.3,19.8c-0.6,0-1.1,0.1-0.9,0.4c0.5,0,1.1,0.3,0,0.4C201.5,20.3,203.1,18.7,204.3,19.8z
	 M194.2,30.5c0,1.1,1.4,1.5,1.4,1.5l-0.5,0.7c1.2,0.5,5.2,0.5,2.8-0.4c1.9,0.1,2.4-0.3,3.7-0.4c-1.4,1.6,3.6,1.1,4.6,0.7
	c0,0.1,0,0.2,0,0.4l0.5-0.2l0.5-0.2c0.8,0,1.1,0.5,1.1,0.5H201c-0.2,0-0.6-0.3-1.3-0.4c0.2,0.2,0.2,0.4,0.1,0.4H195
	c-0.1,0,0-0.2,0.1-0.3l-1.4-0.4l0.5-0.7C194.2,31.6,190.2,30.7,194.2,30.5z M178.4,19c1.6,0.5,1.1,0.3,0.9,0.7
	C179.2,20.1,175.1,18.1,178.4,19z M173.7,16.5c-1.5,0-0.7,0.9-2.8,0.8C170.2,16.5,173.4,15.6,173.7,16.5z M155.2,13.4
	c2.9-0.6,7.5-0.6,6.5,1.4c-3.7,0.4-3.2,0.9-3.2,0.9l-0.5,0.6c0.1,0.5,0.2,1-0.9,1.1c-0.2-0.4-1.8-0.2-1.9-0.7
	c0.7-0.1,0.9-0.4,1.8-0.4l-0.5-0.7l1.4-0.4c0,0-1.3,0.1-2.8-1.1C156.6,14,155.1,13.8,155.2,13.4z M141.5,30.7
	c-0.1,0.4,0.2,1-0.9,1.1c-0.2-0.7-1.5,0.2-1.9-0.3C140.1,31.4,139.4,30.5,141.5,30.7z M125.7,30.5l1.4-0.2l0.5,0.5
	c0.9,0,0.7-0.5,0.9-0.7c1.9-0.3,5.7,0.3,2.8,0.7c0-0.4-1.1-0.3-1.9-0.3c-0.5,0.5-1.4,0.9-2.8,1.1l-1.4-0.2l0.5-0.6
	c-0.7-0.1-0.9-0.4-1.9-0.3c-0.2,0.4-0.9,0.2-0.9,0C123.7,30.2,125.5,29.9,125.7,30.5z M120.1,17.1c-4.4-0.2-6.1,0.4-7.4-0.6
	C115,16.7,120.7,15.6,120.1,17.1z M89.6,15.9c0.7,0.8-3.4,1.5-3.7,0.8C88.9,17.1,86.6,15.5,89.6,15.9z M85.9,28.7
	c-1.6,0-2.4-0.3-2.8-0.7C84.8,28,85.5,28.3,85.9,28.7z M77.6,16.4C83.5,16,79.6,17.5,77.6,16.4L77.6,16.4z M35.1,23.1
	c0-0.6,0.7-0.9,1.8-1.1c0.3,0.6-0.9,0.6-0.9,1.1l0.9,0l0,0.4c3.4-0.1,6,0,8.3,0.3c-1.6,1.4-10.5,0.3-11.1-0.2l-0.5-0.5L35.1,23.1z
	 M167.4,32.6l-1.4-0.2l0.5-0.6c-0.5-0.3,0.5-1.7,2.8-0.4l0.5,0.5l-0.5,0.5c0.9,0.4,3.4-0.6,4.5,0.4h-1.1c0,0-0.3-0.4-1.5-0.5
	c0,0.2,0,0.5-0.1,0.5h-2.5C167.9,33,167.4,32.8,167.4,32.6z"/>
</svg>
