<?xml version="1.0" encoding="utf-8"?>
<!-- Generator: Adobe Illustrator 19.0.0, SVG Export Plug-In . SVG Version: 6.00 Build 0)  -->
<svg version="1.1" id="Layer_1" xmlns="http://www.w3.org/2000/svg" xmlns:xlink="http://www.w3.org/1999/xlink" x="0px" y="0px"
	 viewBox="0 0 262.9 88.1" style="enable-background:new 0 0 262.9 88.1;" xml:space="preserve">
<style type="text/css">
	.st0{fill:#231F20;}
</style>
<g id="XMLID_27_">
	<path class="st0" d="M20.6,65c0,0.5-0.1,0.8-0.2,1c-0.1,0.2-0.4,0.3-0.7,0.3c-0.3,0-0.5-0.1-0.7-0.3c-0.1-0.2-0.2-0.5-0.2-1v-2
		h-0.8l-0.8,6.1c0.4,0,0.8,0,1.2,0.1c0.4,0.1,0.8,0.2,1.2,0.4c0.4,0.2,0.6,0.4,0.8,0.7c0.5-0.3,1.1-0.5,1.6-0.6
		c0.5-0.1,1.1-0.2,1.6-0.1c0.7,0,1.5,0,2.2,0.1c0.7,0.1,1.4,0.2,2.2,0.3c0.8,0.1,1.7,0.2,2.6,0.3c1,0.1,2.1,0.1,3.3,0.1
		c1,0,2.2-0.1,3.4-0.3c1.2-0.2,2.4-0.6,3.5-1.2c1.1-0.6,2-1.4,2.7-2.6c0.7-1.1,1.1-2.5,1.1-4.3V50.6c0-1.4,0.1-2.4,0.2-3.3
		c0.1-0.8,0.3-1.5,0.6-1.9c0.3-0.4,0.5-0.8,0.8-0.9c-0.6-0.3-0.9-0.5-1.1-0.8C45,43.3,44.9,43,45,42.8c0-0.2,0.1-0.5,0.2-0.8
		c0.2-0.3,0.6-0.6,1.2-0.8c-0.2-0.2-0.5-0.5-0.7-0.9c-0.3-0.4-0.4-1-0.6-1.7c-0.2-0.7-0.3-1.7-0.3-3V23.1c0-1.4-0.5-2.6-1.4-3.6
		c-0.9-1-2.3-1.8-3.9-2.4c-1.7-0.6-3.6-0.9-5.9-0.9c-0.9,0-1.8,0-2.4,0c-0.7,0-1.3,0.1-1.9,0.1c-0.6,0.1-1.2,0.2-2,0.3
		c-0.8,0.1-1.5,0.2-2.3,0.2c-0.4,0-0.8,0-1.3-0.1c-0.5-0.1-1-0.2-1.5-0.3c-0.5-0.1-0.9-0.2-1.3-0.4c-0.2,0.3-0.6,0.6-1.3,0.9
		c-0.7,0.3-1.4,0.5-2.2,0.5l1,5.7h1v-1.6c0-0.6,0-1,0.1-1.3c0.1-0.2,0.2-0.3,0.5-0.3c0.3,0,0.4,0,0.5,0.2c0.1,0.2,0.1,0.5,0.1,1.1
		v14.4c0,1.1-0.1,2-0.3,2.7c-0.2,0.7-0.4,1.2-0.7,1.7c-0.3,0.4-0.7,0.8-1.1,1.1c0.4,0.3,0.7,0.6,0.9,0.9c0.2,0.3,0.3,0.5,0.3,0.7
		c0,0.2-0.1,0.5-0.3,0.7c-0.2,0.2-0.5,0.5-0.9,0.7c0.3,0.2,0.6,0.5,0.9,1c0.3,0.4,0.6,1,0.8,1.7c0.2,0.7,0.3,1.6,0.4,2.6V65L20.6,65
		z M29.3,23.3c0-1.3,0.2-2.3,0.7-3c0.5-0.6,1.3-0.9,2.5-0.9c0.9,0,1.6,0.1,2,0.4c0.4,0.3,0.8,0.7,0.9,1.3c0.2,0.6,0.2,1.3,0.2,2.2
		v13.4c0,1-0.1,1.7-0.3,2.4c-0.2,0.6-0.4,1.1-0.7,1.5c-0.3,0.4-0.5,0.7-0.8,1c0.5,0.3,0.8,0.6,1,0.8c0.2,0.3,0.3,0.5,0.3,0.8
		c0,0.2-0.1,0.5-0.4,0.8c-0.3,0.3-0.7,0.5-1.2,0.7c0.5,0.2,1,0.7,1.4,1.5c0.4,0.8,0.6,1.9,0.7,3.4v14.2c0,0.9-0.1,1.6-0.4,2.1
		c-0.2,0.5-0.6,0.8-1,0.9c-0.5,0.2-1,0.2-1.7,0.2c-0.6,0-1.2,0-1.7-0.2c-0.5-0.1-0.8-0.4-1.1-0.9c-0.3-0.5-0.4-1.2-0.4-2.1V49.4
		c0-1,0.1-1.8,0.2-2.4c0.1-0.6,0.3-1.1,0.6-1.5c0.3-0.4,0.6-0.7,1-1c-0.7-0.3-1.2-0.6-1.4-0.9c-0.2-0.3-0.3-0.6-0.3-0.8
		c0-0.2,0.1-0.5,0.4-0.8c0.3-0.3,0.8-0.5,1.4-0.6c-0.4-0.2-0.7-0.5-1-0.9c-0.3-0.4-0.5-0.8-0.6-1.5c-0.1-0.6-0.2-1.4-0.2-2.4V23.3
		L29.3,23.3z M68.7,58.1c0-0.4,0.2-0.7,0.4-1c0.3-0.3,0.7-0.4,1.3-0.4h3.4c0.6,0,1.1,0.2,1.4,0.5c0.3,0.3,0.6,0.6,0.7,1l0.7,7.1
		c0.1,0.3,0.1,0.5,0,0.7c-0.1,0.2-0.2,0.3-0.4,0.3c-0.2,0-0.4-0.1-0.5-0.2c-0.1-0.1-0.2-0.3-0.2-0.4l-0.3-2.3h-0.8l0.2,5.8
		c0.4,0,0.8,0,1.2,0.2c0.4,0.1,0.8,0.2,1.2,0.4c0.4,0.2,0.6,0.4,0.7,0.6c0.5-0.2,1.2-0.4,2-0.5c0.8-0.1,1.6-0.2,2.4-0.2
		c0.4,0,0.8,0,1.2,0c0.4,0,0.8,0.1,1.3,0.1c0.4,0.1,0.8,0.1,1.1,0.2c0.4,0.1,0.7,0.2,0.9,0.3c0.1-0.4,0.4-0.7,0.9-0.9
		c0.4-0.2,0.9-0.4,1.4-0.4l-1-5.9H87v2.2c0,0.2-0.1,0.4-0.2,0.6c-0.1,0.2-0.3,0.3-0.5,0.3c-0.3,0-0.5-0.1-0.6-0.2
		c-0.2-0.2-0.2-0.4-0.2-0.7l-1.7-15.2c-0.1-1.6-0.1-2.8,0.2-3.7c0.3-0.9,0.6-1.5,1-1.9c-0.4-0.2-0.8-0.4-1-0.7
		c-0.2-0.3-0.4-0.6-0.4-0.8c0-0.2,0.1-0.5,0.3-0.7c0.2-0.3,0.6-0.5,1.1-0.7c-0.3-0.1-0.6-0.3-0.9-0.5c-0.3-0.2-0.5-0.5-0.8-0.9
		c-0.2-0.4-0.4-1-0.7-1.8c-0.2-0.8-0.4-1.9-0.5-3.2l-2.3-17.8c-0.4-0.1-0.7-0.2-1-0.4c-0.3-0.2-0.5-0.5-0.7-0.8
		c-0.2,0.1-0.6,0.3-1,0.4c-0.4,0.1-0.9,0.2-1.5,0.2c-0.5,0.1-1.1,0.1-1.6,0.1c-0.3,0-0.7,0-1.1-0.1c-0.4,0-0.9-0.1-1.3-0.2
		c-0.4-0.1-0.8-0.1-1.1-0.2c-0.3-0.1-0.6-0.2-0.7-0.3c-0.1,0.3-0.3,0.6-0.6,0.8c-0.3,0.2-0.7,0.3-1.2,0.4l-2.4,17.8
		c-0.1,1.1-0.3,2.1-0.5,2.8c-0.2,0.7-0.4,1.3-0.6,1.8c-0.3,0.4-0.5,0.8-0.8,1.1c-0.3,0.3-0.6,0.5-0.9,0.7c0.3,0.2,0.6,0.5,0.8,0.7
		c0.2,0.3,0.3,0.5,0.3,0.8c0,0.3-0.1,0.6-0.4,0.8c-0.2,0.2-0.5,0.4-0.8,0.6c0.3,0.2,0.5,0.6,0.7,1c0.2,0.4,0.4,1,0.5,1.7
		c0.1,0.7,0.1,1.7-0.1,2.9l-1.6,15.4c0,0.2,0,0.3-0.1,0.5c-0.1,0.2-0.3,0.3-0.6,0.3c-0.3,0-0.5-0.1-0.7-0.2
		c-0.1-0.1-0.2-0.3-0.2-0.6v-2.2h-0.7l-0.6,5.9c0.3,0,0.6,0.1,0.9,0.2c0.3,0.1,0.7,0.3,1,0.4c0.3,0.2,0.5,0.4,0.6,0.6
		c0.4-0.2,0.9-0.4,1.4-0.5c0.5-0.1,1.1-0.2,1.6-0.2c0.3,0,0.6,0,0.9,0c0.3,0,0.6,0.1,0.9,0.1c0.3,0.1,0.6,0.1,0.9,0.2
		c0.3,0.1,0.5,0.2,0.7,0.3c0.2-0.4,0.5-0.6,1-0.8c0.5-0.2,1-0.3,1.5-0.3v-6.1h-0.8l-0.2,2.5c-0.1,0.2-0.2,0.4-0.3,0.5
		c-0.2,0.2-0.3,0.2-0.6,0.3c-0.2,0-0.4-0.1-0.5-0.2c-0.1-0.2-0.2-0.4-0.2-0.7L68.7,58.1L68.7,58.1z M71.8,31.2c0-0.4,0-0.6,0.1-0.8
		c0.1-0.2,0.2-0.2,0.3-0.2c0.2,0,0.3,0.1,0.4,0.2c0.1,0.2,0.1,0.4,0.1,0.8l0.4,6.8c0,0.2,0,0.5,0,0.9c0,0.4-0.1,0.7-0.1,1.1
		c0,0.4-0.1,0.7-0.2,1c-0.1,0.3-0.2,0.5-0.3,0.6c0.6,0.4,1,0.9,1,1.5c0.1,0.3,0,0.5-0.1,0.8c-0.2,0.2-0.4,0.4-0.7,0.7
		c0.4,0.4,0.7,1,1.1,1.8c0.4,0.8,0.7,1.8,0.8,2.8c0.1,0.9,0,1.6-0.4,1.9c-0.4,0.3-1,0.5-2,0.5c-0.9,0-1.4-0.2-1.8-0.5
		c-0.4-0.4-0.5-1-0.4-1.9c0.1-0.6,0.2-1.2,0.5-1.9c0.2-0.6,0.5-1.2,0.8-1.7c0.3-0.5,0.6-0.8,0.9-1c-0.3-0.1-0.5-0.3-0.7-0.6
		c-0.1-0.2-0.2-0.5-0.2-0.8c0-0.4,0.1-0.6,0.3-0.9c0.2-0.2,0.4-0.4,0.7-0.6c-0.2-0.2-0.3-0.4-0.5-0.8c-0.1-0.4-0.3-0.8-0.4-1.3
		c-0.1-0.5-0.1-1-0.1-1.5L71.8,31.2L71.8,31.2z M112.6,48.3c0-0.8,0.1-1.4,0.3-1.9c0.2-0.4,0.5-0.7,1-0.9c0.4-0.2,1.1-0.2,1.8-0.2
		c0.8,0,1.4,0.1,2,0.2c0.5,0.2,0.9,0.4,1.2,0.9c0.3,0.4,0.4,1.1,0.4,2v20c0.4,0,0.8,0.1,1.2,0.3c0.4,0.2,0.8,0.4,1.1,0.7
		c0.3,0.3,0.6,0.6,0.7,0.9c0.4-0.2,0.9-0.3,1.4-0.3c0.5-0.1,1-0.1,1.5-0.1c0.2,0,0.4,0,0.7,0c0.2,0,0.5,0,0.8,0.1
		c0.3,0,0.5,0.1,0.8,0.2c0.2,0.1,0.4,0.1,0.5,0.2c0.2-0.2,0.4-0.4,0.8-0.6c0.4-0.2,0.8-0.4,1.3-0.5c0.4-0.1,0.8-0.2,1.2-0.2
		l-1.1-5.9h-0.9v2c0,0.2-0.1,0.4-0.1,0.4c-0.1,0.1-0.2,0.1-0.4,0.1c-0.2,0-0.4-0.1-0.5-0.3c-0.1-0.2-0.2-0.4-0.2-0.7V49.1
		c0-1.1-0.3-2.1-0.8-2.8c-0.5-0.8-1.2-1.4-2-1.8c-0.8-0.5-1.6-0.9-2.5-1.2c1.1-0.4,2-0.8,2.8-1.3c0.8-0.5,1.4-1.2,1.8-2
		c0.4-0.8,0.6-1.9,0.6-3.2V23.6c0-1.3-0.4-2.4-1.1-3.4c-0.7-0.9-1.6-1.7-2.8-2.3c-1.1-0.6-2.4-1-3.7-1.3c-1.3-0.3-2.5-0.4-3.7-0.4
		c-1.2,0-2.2,0.1-3,0.2c-0.8,0.1-1.5,0.2-2,0.3c-0.6,0.1-1.3,0.1-2,0.2c-0.7,0.1-1.4,0.1-2.1,0.1c-0.3,0-0.7,0-1.1-0.1
		c-0.4,0-0.7-0.1-1.1-0.2c-0.3-0.1-0.6-0.2-0.9-0.2c-0.3-0.1-0.4-0.2-0.5-0.2c-0.2,0.2-0.4,0.4-0.8,0.6c-0.4,0.2-0.8,0.3-1.3,0.4
		c-0.5,0.1-0.9,0.1-1.4,0.1l1.1,6.5h0.9v-2c0-0.5,0.1-0.8,0.2-0.9c0.1-0.1,0.3-0.2,0.5-0.2c0.2,0,0.3,0,0.4,0.2
		c0.1,0.1,0.1,0.4,0.1,0.9v11.9c0,1.5,0,2.8-0.1,3.9c-0.1,1.1-0.3,2-0.6,2.7c-0.3,0.7-0.8,1.2-1.5,1.6c0.5,0.2,0.9,0.5,1.1,0.7
		c0.3,0.2,0.4,0.5,0.4,0.7c0,0.2-0.1,0.4-0.3,0.6c-0.2,0.2-0.5,0.4-1,0.6c0.6,0.6,1.1,1.4,1.5,2.5c0.4,1.1,0.5,2.5,0.5,4.2v13.2
		c0,0.5-0.1,0.8-0.2,1c-0.1,0.2-0.3,0.2-0.5,0.2c-0.3,0-0.5-0.1-0.6-0.3c-0.1-0.2-0.1-0.4-0.1-0.7v-1.9h-0.9l-1.3,6.3
		c0.3,0,0.8,0.1,1.3,0.2c0.5,0.2,1,0.3,1.4,0.5c0.4,0.2,0.7,0.4,0.9,0.6c0.3-0.1,0.6-0.3,1.1-0.4c0.5-0.1,1-0.2,1.5-0.2
		c0.6,0,1.1-0.1,1.5-0.1c0.4,0,0.8,0,1.2,0c0.4,0,0.8,0.1,1.3,0.2c0.4,0.1,0.8,0.2,1.2,0.2c0.4,0.1,0.6,0.2,0.9,0.2
		c0.2-0.2,0.6-0.4,1-0.6c0.4-0.2,0.9-0.3,1.4-0.4c0.5-0.1,0.9-0.2,1.4-0.2l-1.1-6h-0.9V65c0,0.3,0,0.5-0.1,0.6
		c-0.1,0.1-0.2,0.1-0.3,0.1c-0.3,0-0.5-0.1-0.7-0.3c-0.2-0.2-0.3-0.6-0.4-1.2c-0.1-0.6-0.1-1.4-0.1-2.4V48.3L112.6,48.3z
		 M112.6,22.6c0-0.9,0.3-1.6,0.8-2c0.6-0.5,1.3-0.7,2.3-0.7c0.6,0,1.1,0.1,1.7,0.2c0.5,0.2,1,0.4,1.3,0.8c0.3,0.4,0.5,1,0.5,1.7
		v15.7c0,0.9-0.1,1.6-0.4,2.1c-0.3,0.5-0.6,0.8-1.1,1c-0.5,0.2-1.2,0.3-1.9,0.2c-1.1,0-1.9-0.2-2.4-0.5c-0.5-0.4-0.8-1-0.8-2V22.6
		L112.6,22.6z M143.8,23.2h0.9v-2c0-0.5,0.1-0.8,0.2-1c0.1-0.2,0.4-0.2,0.6-0.2c0.2,0,0.4,0,0.5,0.2c0.1,0.1,0.1,0.4,0.1,0.9v14.9
		c0,1.6-0.2,2.8-0.5,3.6c-0.3,0.8-0.8,1.4-1.4,1.6c0.4,0.2,0.8,0.5,1,0.8c0.3,0.2,0.4,0.5,0.4,0.8c0,0.3-0.1,0.6-0.4,0.9
		c-0.3,0.3-0.6,0.5-1,0.6c0.4,0.2,0.7,0.5,1,1c0.3,0.4,0.5,1.1,0.7,1.9c0.2,0.8,0.3,2,0.3,3.4v14.3c0,0.4,0,0.6-0.1,0.9
		c-0.1,0.2-0.3,0.3-0.5,0.3c-0.2,0-0.4-0.1-0.5-0.2c-0.1-0.1-0.2-0.4-0.2-0.6v-2.5H144l-1.1,6.3c0.3,0,0.7,0.1,1.2,0.2
		c0.4,0.1,0.9,0.3,1.3,0.5c0.4,0.2,0.6,0.4,0.8,0.6c0.4-0.2,1.1-0.4,1.8-0.5c0.8-0.1,1.6-0.2,2.4-0.2c0.4,0,0.8,0,1.2,0
		c0.4,0,0.8,0.1,1.2,0.2c0.4,0,0.8,0.1,1.2,0.2c0.4,0.1,0.7,0.2,0.9,0.3c0.2-0.3,0.7-0.6,1.3-0.8c0.6-0.3,1.3-0.4,1.9-0.4l-1-5.9
		h-0.8v2.2c0,0.3-0.1,0.6-0.2,0.7c-0.1,0.1-0.3,0.2-0.5,0.2c-0.3,0-0.4-0.1-0.5-0.2c-0.1-0.1-0.1-0.4-0.1-0.7V50.9l2.5-5.3h0.2
		l4.5,19.4c0.1,0.4,0.2,0.7,0.1,0.9c0,0.2-0.1,0.3-0.3,0.3c-0.3,0.1-0.5,0.1-0.7,0c-0.2-0.1-0.4-0.3-0.6-0.7l-0.9-2.3h-0.6l0.8,5.9
		c0.7,0,1.4,0.1,2.2,0.3c0.7,0.2,1.2,0.5,1.6,0.9c0.3-0.2,0.7-0.3,1.2-0.4c0.5-0.1,1-0.2,1.6-0.2c0.6,0,1.1-0.1,1.6-0.1
		c0.4,0,0.8,0,1.2,0c0.4,0,0.8,0.1,1.3,0.2c0.4,0.1,0.8,0.1,1.2,0.2c0.3,0.1,0.6,0.2,0.8,0.3c0.1-0.2,0.4-0.4,0.6-0.6
		c0.3-0.2,0.6-0.4,0.9-0.5c0.3-0.1,0.6-0.2,0.9-0.2l-1.7-5.6h-0.6v2.3c0,0.2,0,0.4-0.1,0.5c-0.1,0.1-0.2,0.2-0.3,0.2
		c-0.2,0-0.4-0.1-0.6-0.2c-0.1-0.1-0.2-0.3-0.3-0.7L167.5,49c-0.3-1.3-0.3-2.2-0.1-2.9c0.2-0.7,0.6-1.2,1-1.5
		c-0.4-0.1-0.8-0.3-1.1-0.5c-0.3-0.2-0.6-0.5-0.7-0.9c-0.1-0.3-0.1-0.6,0.1-0.9c0.2-0.3,0.6-0.6,1-0.8c-1.1-1-1.9-2-2.4-3
		c-0.5-1.1-0.8-2.2-1-3.3l6.5-13.7c0.2-0.4,0.4-0.7,0.6-0.9c0.2-0.1,0.4-0.2,0.6-0.1c0.2,0,0.3,0.1,0.4,0.3c0.1,0.1,0,0.3-0.1,0.5
		l-0.9,2.1h0.9l3.2-6.3c-0.6,0-1.2-0.1-1.9-0.3c-0.6-0.2-1.1-0.4-1.4-0.6c-0.3,0.2-0.7,0.3-1.2,0.5c-0.5,0.2-1.1,0.2-1.6,0.2
		c-0.2,0-0.4,0-0.7-0.1c-0.3,0-0.5-0.1-0.8-0.2c-0.2-0.1-0.4-0.1-0.6-0.2c-0.2-0.1-0.4-0.1-0.6-0.2c-0.2,0.2-0.4,0.3-0.8,0.5
		c-0.4,0.2-0.8,0.3-1.3,0.4c-0.5,0.1-1,0.2-1.5,0.2l-2.1,6.2l0.8,0.1l1.2-2.5c0.2-0.3,0.3-0.5,0.6-0.6c0.2-0.1,0.4-0.1,0.6,0
		c0.2,0.1,0.3,0.2,0.3,0.4c0,0.2,0,0.4-0.1,0.7l-9.1,18.8h-0.3V21.9c0-0.5,0.1-0.8,0.2-1c0.2-0.2,0.4-0.4,0.7-0.4
		c0.2,0,0.4,0.1,0.5,0.2c0.1,0.1,0.2,0.3,0.2,0.6l0.2,2.1h0.6l1.1-6.2c-0.4,0-0.8,0-1.2-0.1c-0.4-0.1-0.8-0.2-1.1-0.4
		c-0.3-0.2-0.6-0.3-0.7-0.5c-0.3,0.1-0.8,0.3-1.3,0.4c-0.6,0.1-1.1,0.2-1.8,0.2c-0.6,0.1-1.1,0.1-1.6,0.1c-0.4,0-0.8,0-1.2-0.1
		c-0.4,0-0.8-0.1-1.3-0.2c-0.4-0.1-0.7-0.1-1-0.2c-0.3-0.1-0.6-0.2-0.8-0.3c-0.2,0.2-0.5,0.3-0.9,0.5c-0.4,0.2-0.9,0.3-1.4,0.4
		c-0.5,0.1-0.9,0.2-1.4,0.2L143.8,23.2L143.8,23.2z"/>
	<path class="st0" d="M198.9,50.2c0-1.3,0-2.3,0.1-3c0-0.7,0.2-1.2,0.4-1.5c0.3-0.3,0.7-0.4,1.2-0.4c0.3,0,0.7,0.1,1,0.3
		c0.3,0.2,0.5,0.4,0.5,0.8c0,0.3,0,0.5-0.1,0.7c-0.1,0.2-0.2,0.4-0.3,0.6c-0.2,0.2-0.3,0.5-0.4,0.8c-0.1,0.3-0.2,0.6-0.2,1
		c0,0.4,0.1,0.8,0.4,1.1c0.3,0.3,0.6,0.5,1,0.6c0.4,0.1,0.8,0.2,1.3,0.1c-0.2-0.2-0.4-0.4-0.5-0.6c-0.1-0.2-0.2-0.4-0.2-0.6
		c0-0.2,0.2-0.5,0.5-0.8c0.3-0.3,0.8-0.6,1.5-1c0.4-0.3,0.7-0.6,0.9-0.9c0.2-0.3,0.4-0.7,0.4-1.1c0-0.5-0.2-0.9-0.5-1.3
		c-0.3-0.4-0.8-0.7-1.3-1l2.5-1.2l-2.4-1.3c0.6-0.2,1-0.5,1.3-0.9c0.3-0.3,0.4-0.7,0.4-1.1c0-0.4-0.2-0.7-0.4-1.1
		c-0.3-0.4-0.6-0.6-0.8-0.8c-0.5-0.4-0.9-0.6-1.2-0.9c-0.2-0.2-0.3-0.5-0.3-0.7c0-0.2,0-0.4,0.1-0.6c0.1-0.2,0.2-0.4,0.3-0.5
		c-0.3,0-0.7,0-1.1,0.2c-0.4,0.2-0.8,0.4-1.1,0.7c-0.3,0.3-0.5,0.6-0.5,1c0,0.3,0.1,0.6,0.1,0.8c0.1,0.3,0.2,0.5,0.3,0.7
		c0.1,0.2,0.2,0.3,0.3,0.5c0.1,0.2,0.1,0.4,0.1,0.6c0,0.2-0.1,0.5-0.4,0.7c-0.2,0.2-0.6,0.4-0.9,0.4c-0.4,0-0.7,0-1-0.2
		c-0.3-0.1-0.5-0.5-0.7-0.9c-0.1-0.5-0.2-1.2-0.2-2.3v-14c0-0.9,0.1-1.7,0.3-2.2c0.2-0.5,0.6-0.9,1-1.1c0.4-0.2,0.9-0.3,1.6-0.3
		c1,0,1.8,0.3,2.2,0.8c0.5,0.6,0.7,1.5,0.7,2.7v4.3c0,0.8,0,1.4-0.1,1.9c-0.1,0.5-0.2,0.9-0.4,1.2c-0.2,0.3-0.4,0.6-0.6,0.8
		c1,0.3,1.8,0.6,2.3,1c0.6,0.4,0.9,1,1.1,1.7c0.2,0.7,0.3,1.8,0.3,3h0.9c0-1.3,0.1-2.4,0.3-3.1c0.2-0.7,0.5-1.3,1-1.7
		c0.5-0.4,1.3-0.7,2.2-1c-0.3-0.4-0.5-0.9-0.6-1.5c-0.1-0.6-0.1-1.4-0.1-2.3v-6.8c0-1,0.1-1.8,0.2-2.3c0.2-0.5,0.4-0.9,0.7-1.1
		c-0.6,0-1.1-0.2-1.7-0.4c-0.6-0.3-0.9-0.5-1.1-0.8c-0.4,0.2-0.8,0.3-1.3,0.5c-0.5,0.1-0.9,0.2-1.3,0.2c-0.6,0-1.2-0.1-1.7-0.2
		c-0.5-0.1-0.9-0.2-1.3-0.3c-0.4-0.1-0.9-0.1-1.3-0.2c-0.5,0-1-0.1-1.7-0.1c-0.4,0-0.7,0-1.2,0.1c-0.4,0-0.8,0.1-1.3,0.2
		c-0.5,0.1-1,0.2-1.6,0.3c-0.6,0.1-1.4,0.1-2.2,0.1c-0.4,0-0.9,0-1.3-0.1c-0.4,0-0.9-0.1-1.2-0.2c-0.4-0.1-0.7-0.1-1-0.2
		c-0.3-0.1-0.5-0.2-0.7-0.3c-0.4,0.4-0.9,0.6-1.4,0.9c-0.6,0.2-1.2,0.4-1.9,0.4l1,6.1h0.9v-2.3c0.1-0.3,0.1-0.5,0.3-0.6
		c0.1-0.1,0.3-0.2,0.6-0.2c0.2,0,0.4,0.1,0.4,0.2c0.1,0.1,0.1,0.3,0.1,0.6v14.6c0,1.6-0.2,2.9-0.6,3.8c-0.4,0.9-0.8,1.5-1.3,1.8
		c0.4,0.2,0.7,0.4,0.9,0.7c0.2,0.2,0.4,0.5,0.4,0.7c0,0.3-0.1,0.5-0.4,0.8c-0.2,0.3-0.6,0.5-0.9,0.6c0.3,0.2,0.5,0.6,0.8,1.1
		c0.3,0.5,0.6,1.2,0.8,2.2c0.2,0.9,0.3,2.2,0.3,3.7v13.5c0,0.4-0.1,0.7-0.2,0.8c-0.1,0.2-0.3,0.2-0.6,0.2c-0.3,0-0.4-0.1-0.5-0.2
		c-0.1-0.2-0.1-0.5-0.1-0.9v-2.3h-1l-1,6.3c0.4,0,0.8,0.2,1.2,0.3c0.4,0.2,0.8,0.3,1.2,0.5c0.4,0.2,0.6,0.4,0.8,0.6
		c0.4-0.2,0.8-0.4,1.3-0.5c0.4-0.1,0.9-0.2,1.4-0.2c0.6,0,1.3,0,1.9,0.1c0.6,0.1,1.2,0.1,1.7,0.2c0.5,0.1,1.1,0.2,1.6,0.3
		c0.6,0.1,1.2,0.2,1.8,0.2c0.8,0,1.4,0,1.9-0.1c0.5-0.1,1-0.2,1.4-0.2c0.4-0.1,0.8-0.2,1.3-0.2c0.5-0.1,1.1-0.1,1.7-0.1
		c0.3,0,0.6,0,0.9,0c0.3,0,0.6,0.1,0.8,0.1c0.3,0,0.5,0.1,0.7,0.2c0.2,0.1,0.5,0.1,0.8,0.2c0.1-0.1,0.4-0.3,0.7-0.5
		c0.4-0.2,0.7-0.3,1.1-0.4c0.4-0.1,0.8-0.2,1.1-0.3c-0.2-0.1-0.3-0.3-0.5-0.4c-0.1-0.2-0.2-0.4-0.3-0.7c-0.1-0.3-0.1-0.7-0.1-1.2
		c0-0.5-0.1-1.2-0.1-2.1v-6.3c0-0.9,0.1-1.7,0.3-2.3c0.2-0.6,0.5-1.1,0.9-1.4c-0.8-0.2-1.4-0.4-1.9-0.7c-0.5-0.2-0.9-0.5-1.1-0.9
		c-0.3-0.4-0.5-0.9-0.6-1.6c-0.1-0.7-0.2-1.6-0.2-2.8h-0.8c0,1.1-0.1,2-0.2,2.6c-0.1,0.7-0.3,1.2-0.6,1.6c-0.3,0.4-0.7,0.7-1.2,0.9
		c-0.5,0.2-1.1,0.4-1.8,0.6c0.3,0.4,0.5,1,0.6,1.6c0.1,0.7,0.1,1.4,0.1,2.2v5.1c0,1-0.1,1.8-0.2,2.3c-0.2,0.5-0.4,0.9-0.8,1
		c-0.4,0.2-0.9,0.3-1.6,0.2c-1.1,0-1.9-0.1-2.4-0.5c-0.5-0.3-0.7-0.9-0.7-1.7V50.2L198.9,50.2z M231.9,57.6c0-1.1,0.1-1.9,0.2-2.5
		c0.1-0.6,0.3-1,0.6-1.3c-0.8-0.2-1.5-0.4-2-0.8c-0.5-0.3-0.9-0.9-1.2-1.6c-0.3-0.7-0.4-1.8-0.4-3.1h-0.7c0,1-0.1,1.9-0.2,2.5
		c-0.1,0.6-0.3,1.2-0.6,1.5c-0.3,0.4-0.7,0.7-1.2,0.9c-0.5,0.2-1.1,0.4-1.8,0.5c0.3,0.3,0.6,0.8,0.8,1.4c0.2,0.6,0.3,1.5,0.3,2.4
		v7.5c0,0.8-0.1,1.4-0.1,1.9c-0.1,0.5-0.2,0.9-0.4,1.2c-0.2,0.3-0.4,0.5-0.6,0.7c0.7,0.1,1.4,0.3,1.9,0.5c0.5,0.2,0.9,0.6,1.2,1
		c0.3-0.2,0.6-0.4,0.9-0.5c0.3-0.1,0.7-0.2,1.1-0.2c0.5,0,1,0,1.5,0.1c0.5,0.1,1,0.2,1.5,0.3c0.5,0.1,1.1,0.2,1.8,0.3
		c0.7,0.1,1.4,0.1,2.3,0.1c1.9,0,3.6-0.3,5-0.8c1.4-0.5,2.6-1.2,3.4-2.1c0.9-0.9,1.6-1.9,2-3c0.4-1.1,0.6-2.2,0.6-3.3
		c0-1-0.1-2-0.3-3.1c-0.2-1.1-0.5-2.2-0.8-3.2c-0.3-1.1-0.7-2-1-2.9c-0.4-0.9-0.7-1.6-1-2.2c-0.5-1-0.9-1.9-1-2.6
		c-0.2-0.7-0.2-1.3-0.1-1.8c0.1-0.5,0.3-0.8,0.5-1.1c-0.4,0-0.9-0.1-1.3-0.2c-0.4-0.1-0.7-0.3-0.9-0.6c-0.2-0.2-0.2-0.5-0.1-0.9
		c0.1-0.3,0.4-0.6,0.7-0.9c-0.7-0.2-1.4-0.7-2.1-1.3c-0.7-0.6-1.4-1.4-2-2.3c-0.6-0.9-1.2-1.8-1.8-2.8c-0.5-1-1-2-1.4-2.9
		c-0.2-0.5-0.4-1.1-0.6-1.9c-0.3-0.8-0.5-1.6-0.7-2.6c-0.2-0.9-0.4-1.8-0.6-2.7c-0.1-0.9-0.2-1.7-0.2-2.4c0-1,0.2-1.7,0.7-2.3
		c0.5-0.6,1.2-0.8,2.3-0.8c1.2,0,2.2,0.3,2.9,0.9c0.7,0.6,1.1,1.5,1.1,2.7v3.8c0,0.9,0,1.6-0.1,2.2c-0.1,0.6-0.2,1-0.4,1.3
		c-0.2,0.3-0.4,0.6-0.6,0.9c0.7,0.2,1.3,0.4,1.7,0.6c0.5,0.2,0.8,0.6,1.1,1c0.3,0.4,0.4,0.9,0.6,1.6c0.1,0.7,0.2,1.6,0.2,2.7h0.9
		c0-1.4,0.1-2.4,0.3-3.2c0.2-0.8,0.6-1.4,1.1-1.7c0.5-0.4,1.2-0.7,2.1-0.9c-0.4-0.3-0.8-0.8-1-1.5c-0.2-0.7-0.3-1.6-0.3-2.8v-5.9
		c0-0.5,0-1,0.1-1.5c0.1-0.5,0.2-1,0.3-1.4c0.1-0.4,0.3-0.7,0.5-0.9c-0.6,0-1.2-0.1-1.8-0.3c-0.6-0.2-1-0.6-1.3-1
		c-0.2,0.2-0.6,0.3-1,0.5c-0.4,0.2-0.8,0.2-1.3,0.2c-0.5,0-1.1,0-1.5-0.1c-0.5-0.1-1-0.2-1.5-0.2c-0.5-0.1-1.1-0.2-1.6-0.2
		c-0.5-0.1-1.1-0.1-1.8-0.1c-1.8,0-3.3,0.2-4.7,0.7c-1.3,0.4-2.4,1-3.2,1.8c-0.8,0.8-1.5,1.6-1.9,2.6c-0.4,1-0.6,2-0.6,3
		c0,1.3,0.1,2.6,0.4,4c0.2,1.3,0.5,2.6,0.9,3.8c0.4,1.2,0.8,2.3,1.2,3.3c0.4,1,0.8,1.8,1.1,2.5c0.6,1.1,0.9,2,0.9,2.8
		c0,0.7-0.1,1.3-0.4,1.7c0.5,0.1,0.9,0.2,1.3,0.4c0.4,0.2,0.7,0.4,0.9,0.7c0.1,0.2,0.2,0.5,0.1,0.9c0,0.4-0.2,0.7-0.4,1
		c0.6,0.1,1.2,0.4,1.7,0.8c0.6,0.5,1.2,1.2,1.9,2.2c0.8,1.2,1.6,2.6,2.4,4.1c0.8,1.6,1.4,3.2,1.9,5c0.5,1.8,0.8,3.6,0.8,5.5
		c0,1.2-0.3,2.1-0.9,2.8c-0.6,0.7-1.6,1-3.1,1c-0.6,0-1.2-0.1-1.7-0.4c-0.5-0.2-0.9-0.7-1.2-1.4c-0.3-0.7-0.5-1.6-0.5-2.8V57.6
		L231.9,57.6z"/>
</g>
</svg>
