<?xml version="1.0" encoding="utf-8"?>
<!-- Generator: Adobe Illustrator 17.0.0, SVG Export Plug-In . SVG Version: 6.00 Build 0)  -->
<!DOCTYPE svg PUBLIC "-//W3C//DTD SVG 1.1//EN" "http://www.w3.org/Graphics/SVG/1.1/DTD/svg11.dtd">
<svg version="1.1" id="header-svg" xmlns="http://www.w3.org/2000/svg" xmlns:xlink="http://www.w3.org/1999/xlink" x="0px" y="0px"
	 width="1366px" height="301.743px" viewBox="0 0 1366 301.743" enable-background="new 0 0 1366 301.743" xml:space="preserve">
<path fill-rule="evenodd" clip-rule="evenodd" fill="#FFFFFF" d="M0.5,26.243c0,0,0.225-1.733,2.786-1.626
	c0.344,0.149,1.152,0.504,0.529,0.626h7.511c-0.07-0.05-0.102-0.111-0.053-0.193c0.854-0.721,2.431-0.016,4.78-0.433
	c-0.679-0.32-2.005-0.466-3.966-0.434c0.085-0.253-0.175-0.604,0.77-0.646c0-0.221,0.166-0.467,0.597-0.703l-0.597,0.056
	c-3.25,0.205-3.681,0.1-5.598-0.433c5.382-1.399,9.611,0.131,16.785-0.434c0-0.867-0.422-1.612-3.968-1.514
	c1.576-0.753,2.649-0.032,5.595-0.434c-2.48-0.777,2.049-0.671,0.766-1.291c7.562,1.226,17.089,1.17,25.374,0.866
	c0.084-0.148,0.128-0.286,0-0.36c-0.131-0.124,0.084-0.254,0.551-0.295c0.087-0.008,0.213-0.008,0.3-0.008
	c0.344,0,0.685,0.057,0.77,0.147c0.341,0.244,0.168,0.531-0.038,0.751l0.254-0.024c0,0.304,0,0.606,0,0.909
	c0.047,0,0.125,0.008,0.172,0.008l-0.046-0.09c2.651,0.343,2.483,0.425,4.575,0.582c-2.014-0.745,1.321-0.468,2.262-0.876
	c0.044,0.4-0.344,0.638-0.767,0.876c5.633-0.468,12.98,0.637,18.278-0.295c0.431,0.711,2.993,0.622,2.305,1.75v0.009
	c0.34-0.05,0.726-0.114,1.069-0.114c0.472,0,0.857,0.04,1.242,0.114v-0.009c4.741,0.957,7.002-0.801,11.396-0.876
	c-0.084,0.738-1.448,0.917,0.776,1.17c2.853-0.694,7.984,0.696,11.403-0.876c4.695,0.525,16.401,0.459,23.663-0.579v0.032
	l0.169-0.114l0.174-0.041c0.553-0.125,1.189-0.147,1.832-0.181l0.342-0.016c0.041,0,0.087,0,0.128,0c0.131,0,0.215,0.032,0.341,0.05
	v-0.024c-0.682-1.073,4.021-0.533,4.616-0.295l-0.084,0.033c0.337,0.056,0.769,0.122,1.105,0.213
	c0.177,0.032,0.344,0.056,0.515,0.089l-0.041-0.04c4.741-0.369,9.357,0.302,12.172,0c0.088-0.01-0.04-0.582,0-0.582
	c1.665-0.032,3.462,0.653,4.617,0.582c0.125-0.01-0.772-0.59-0.772-0.582c3.209-0.425,8.714,0.008,12.176-1.466
	c1.92,0.827,6.02,0.387,9.139,0.295l0.127,0.024c-0.04-0.401,0.256-0.736,0.898-0.966l0.169-0.064l0.256-0.009
	c0.044,0,0.132,0,0.216,0c1.326,0,2.224,0.361,2.906,0.655c0.085,0.031,0.172,0.057,0.254,0.08c2.648,0.245,2.948-0.154,5.085,0.279
	c0-0.295-0.641-0.342-0.77-0.58c5.68-0.173,10.381-1.875,11.403-3.504c2.396,0.329,5.724,0.329,8.414,1.163
	c4.701-1.366,11.662-1.203,15.249-0.581c-1.751,0.163,0.898,0.457-0.77,0.875c5.637-0.179,11.535-0.483,18.284-0.875
	c-0.085,0.5,0.594,0.745,1.536,0.875c-1.961-0.883,7.092-1.22,9.057-0.59c0.597-0.114,1.282-0.236,2.092-0.236
	c0.3,0,0.556,0.015,0.813,0.05c0.342,0.04,0.601,0.146,0.854,0.285l0.085-0.089c1.107-0.114,1.28-0.351,2.305,0l0.3,0.032
	c0.044-0.073,0.169-0.146,0.384-0.187c0.854-0.205,1.964-0.302,3.247-0.302c0.425,0,0.896,0.023,1.363,0.04
	c0.046-0.017,0.09-0.025,0.128-0.04l-0.082-0.132c0-0.296,1.326-0.369,1.495,0l-0.085,0.049c0.635,0.025,1.279,0.042,1.746,0.065
	c0.387,0.024,0.731,0.05,1.113,0.058c0.047,0,0.047,0.009,0.047,0.009c1.282-0.319,2.133,0.178,3.281,0.408
	c0-0.294-0.595-0.351-0.722-0.589c1.411,0.064,1.663-0.328,2.987-0.288l-0.082,0.123c0.554-0.097,1.239-0.195,2.008-0.195
	c0.385,0,0.813,0.04,1.195,0.114l-0.041-0.041c8.372,0.041,12.127-0.015,17.511-0.875c-0.09,0.654-1.025,0.866,0.341,1.088
	c0.219-0.123,0.425-0.245,0.684-0.352l0.132-0.056l0.21-0.025c1.62-0.163,3.33-0.186,5.001-0.221
	c0.725-0.007,1.407-0.031,2.127-0.048c0.09-0.034,0.134-0.075,0.219-0.098c1.876-0.303,3.759-0.27,5.639-0.238
	c1.282,0.025,2.48,0.025,3.674-0.058c0,0,0-0.008,0-0.016c0.679-0.164,1.367-0.205,2.055-0.205c0.379,0,0.808,0.024,1.189,0.041
	c0.385,0.017,0.767,0.032,1.116,0.024c0.166-0.007,0.297,0.033,0.42,0.051c1.028-0.163,2.311-0.23,3.08-0.476
	c0.342,0.368,1.026,0.598,2.305,0.589l-0.087,0.081c0.385-0.04,0.77-0.081,1.114-0.105c0.044,0,0.084,0,0.13,0
	c0.126,0,0.207,0.024,0.339,0.049l0.044-0.025c0-0.294-0.6-0.352-0.772-0.589c1.029,0,2.052,0,3.031,0
	c1.031-0.858,0.813-1.48-0.723-2.039c2.223,0.704,5.551-0.784,7.603,0c-0.941,0.116-1.539,0.379-1.539,0.885
	c4.87,0.212,1.194-2.241,6.111-1.178v0.099c2.007-0.294,4.141-0.491,6.233-0.704l0.131-0.016h0.085c0.253,0,0.426,0.065,0.469,0.131
	c0.04,0.099-0.085,0.196-0.341,0.229l-0.128,0.017c-1.924,0.181-3.929,0.393-5.809,0.654c-0.259,0.294-1.115,0.574,0.085,0.769
	c0.169-0.228,0.044-0.589,0.769-0.589c0.767-0.146-0.172,1.407,1.536,1.162c0.343-0.049,0.895-0.966,1.539-0.867
	c0.257,0.032,1.11,1.195,3.037,1.162c0.423-0.015,0.763-0.263,1.532,0.286c5.727,0.254,10.546-0.205,16.022-0.286
	c6.659-0.097,14.431,0.694,15.966-0.294c0.091,0.542,2.562,0.18,3.034,0.581c0.641-0.826,4.659-0.335,6.111-0.875
	c7.813,1.734,13.07-1.571,17.508,0c-1.921-0.049,7.775,0.605,8.375,0.589c0.342-0.015-0.174-0.638,0.77-0.589
	c0.341,0.017,0.726,0.574,1.537,0.589c0,0-0.645-0.589-0.767-0.589c3.412-0.148,9.055,0.343,12.172,1.169
	c0.985-0.441,5.983-1.53,7.65-0.581c0-0.049-0.09-0.589,0-0.589c3.069-0.116,15.673-0.311,19.047,0.294
	c0.251,0.049-0.172-0.377,2.265-0.573c1.92-0.181,7.044,0.541,6.11-0.885c-1.759,0.083-2.908-0.064-3.08-0.588
	c1.496-0.589,4.529-0.605,4.57-1.751c-3.459-0.049-2.99-0.244-6.106,0l0.169-0.194c-0.684,0.114-1.923,0.276-2.903-0.117
	l-0.087-0.031l-0.038-0.066c-0.134-0.279-0.09-0.656,0.295-1.015c0,0,0,0-0.044-0.032c-0.77-0.491-1.498-0.443-3.456-0.165
	c-1.111,0.165-2.308,0.328-3.546,0.261c0.128,0.213,0.297,0.378,0.641,0.46l0.426,0.097l-0.337,0.165
	c-0.558,0.262-1.286,0.359-2.058,0.311l-0.169-0.017l-0.084-0.032c-0.554-0.23-1.067-0.427-1.79-0.606
	c-0.175,0.033-0.429,0.082-0.775,0.146c-0.429,0.1-0.898,0.198-1.58,0.311c-0.301,0.05-0.638,0.018-0.811-0.113
	c-0.125-0.098,0-0.247,0.298-0.295c0.643-0.115,1.153-0.229,1.535-0.296c0.305-0.064,0.515-0.097,0.772-0.145
	c0.166-0.214,0.516-0.639,1.579-0.834l0.257-0.068l0.297,0.068c0.385,0.081,0.644,0.113,0.898,0.163c0.172-0.016,0.431-0.033,0.6,0
	c0.941,0.181,2.051,0.016,3.246-0.163c0.772-0.099,1.708-0.246,2.649-0.246c0.851,0,1.71,0.164,2.389,0.508l0.132-0.099
	c2.264-0.655,3.074-0.655,5.339,0c0-0.294,0.598-0.344,0.772-0.59c-0.982,0.067-1.584,0.46-1.541-0.277c1.025,0,2.051,0,3.03,0
	l-0.04,0.049c0.168-0.034,0.343-0.034,0.553-0.066c0.385-0.032,0.77-0.065,1.154-0.13c2.352-3.438,6.924-5.792,14.355-6.285
	c-0.427,0-0.772,0.198-0.174,0.28c0.087-0.018,0.213-0.033,0.3-0.049c0.641-0.082,1.326-0.181,2.092-0.181
	c0.341,0,0.679,0.049,1.029,0.114c0.038-0.016,0.085-0.032,0.123-0.032c0.134,0,0.215,0,0.388,0c0.594,0,1.323,0.032,2.133,0.099
	l0.384,0.031l0.173,0.131c0.3,0.262,0.212,0.54,0.127,0.817l0.26-0.031c2.086-0.033,1.536,0.491,3.069,0
	c3.681,1.474,2.226,2.7,9.914,2.324c2.22,3.828,9.138-1.277,13.667,0.884c0.685-0.983,1.71-0.034,3.071-0.59
	c0.307,0.507-1.107,0.752,0,0.882c0.647-0.423,2.436-0.423,3.803-0.589c9.826,1.277,15.166,0.982,23.62,0.296
	c0.519,0.883,0.519,0.572,0,1.439h0.943c0.085-0.197,0.339-0.377,0.688-0.556h-0.093c0.093-0.36-0.169-0.835,0.77-0.883
	c0.171,0.228,0,0.572,0.723,0.587l-0.036,0.05c0.77-0.114,1.451-0.164,2.13-0.164c0.391,0,0.731,0.033,1.072,0.05
	c0.041-0.017,0.041-0.017,0.041-0.033c-0.087-0.097-0.257-0.18-0.344-0.278c-0.084-0.114,0.087-0.246,0.387-0.279
	c0.041-0.016,0.122-0.016,0.213-0.016c0.215,0,0.469,0.048,0.515,0.146c0.081,0.081,0.207,0.131,0.254,0.197
	c0.128,0,0.256,0.016,0.34,0.032c0.085,0,0.085,0.05,0.172,0.068c0.598-0.148,1.063-0.345,1.495-0.558l0.294-0.145l0.385,0.082
	c0.729,0.164,1.495,0.326,2.183,0.523c0.472,0.099,0.941,0.229,1.451,0.344c0.088-0.018,0.172-0.049,0.257-0.066
	c0,0-0.044-0.016,0-0.016c0.041-0.197,0.513-0.344,1.025-0.344c0,0,0.085,0.016,0.126,0.016c0.897,0.032,1.582,0.229,2.179,0.427
	c0,0,0,0,0.044,0c0.044-0.018,0.132-0.018,0.209-0.018c0.087,0,0.175,0.018,0.26,0.032c0.085-0.065,0.256-0.114,0.297-0.18
	c0.131-0.131,0.26-0.23,0.391-0.328l0.123-0.081l0.215-0.016c0.516-0.067,1.023-0.081,1.535-0.081c0.513,0,0.986,0.032,1.41,0.081
	l0.215,0.032l0.088,0.065c0.082,0.066,0.254,0.132,0.338,0.197c0.894-0.033,1.455-0.065,1.876-0.228l0.347-0.116l0.425,0.032
	c0.344,0.017,0.682,0.067,1.025,0.115c0.679,0.098,1.108,0.132,1.539,0.066l0.513-0.114l0.428,0.18
	c0.682,0.311,0.47,0.719,0.297,1.064c-0.046,0.016-0.046,0.049-0.046,0.065c0.256,0.017,0.56,0.017,0.728,0.032
	c0.131,0.018,0.298,0.018,0.388,0.033c0.078-0.033,0.21-0.065,0.338-0.097c0.085-0.033,0.169-0.05,0.251-0.083
	c0.046-0.098,0.09-0.195,0.09-0.31c0.044-0.147,0.087-0.31,0.172-0.441l0.081-0.099l0.175-0.031
	c0.513-0.132,1.111-0.165,1.707-0.197l0.388-0.016c0.038,0,0.038,0,0.038,0c0.432-0.164,0.857-0.246,1.114-0.246
	c1.025,0,2.049,0.393,2.264,0.819c0.216,0.344-0.297,0.638-1.239,0.785h-0.087c-0.769,0.033-1.457-0.066-1.965-0.294
	c-0.253-0.131-0.426-0.326-0.513-0.524c-0.256,0.018-0.51,0.033-0.685,0.067c-0.081,0.064-0.081,0.146-0.081,0.227
	c-0.093,0.164-0.093,0.328-0.213,0.477l-0.046,0.08l-0.169,0.05c-0.172,0.049-0.256,0.082-0.432,0.131
	c-0.169,0.065-0.423,0.131-0.6,0.181l-0.166,0.065l-0.256-0.017c-0.256,0-0.513-0.015-0.851-0.047
	c-0.256-0.033-0.682-0.033-1.11-0.066c-0.087,0.032-0.172,0.049-0.303,0.049c-0.466-0.017-0.766-0.164-0.722-0.344
	c0-0.115,0.081-0.245,0.168-0.377c0.088-0.114,0.172-0.244,0.172-0.344c-0.729,0.034-1.367-0.064-1.879-0.13
	c-0.169-0.032-0.3-0.049-0.469-0.064c-0.644,0.18-1.367,0.229-2.049,0.262c0.082,0.114,0.21,0.26,0.466,0.424
	c0.166,0.115,0.043,0.262-0.256,0.329c-0.339,0.065-0.676,0.032-0.854-0.099c-0.338-0.212-0.688-0.589-0.688-0.884
	c-0.163-0.099-0.338-0.18-0.51-0.262c-0.51-0.064-1.241-0.064-1.874,0c-0.088,0.049-0.131,0.115-0.216,0.198
	c-0.084,0.081-0.215,0.178-0.344,0.277c0.129,0.065,0.26,0.114,0.304,0.213c0,0.049,0.04,0.115,0.04,0.163c0,0,0,0,0.041,0
	l0.515,0.033c0.379,0.033,0.679,0.197,0.595,0.344c-0.085,0.147-0.429,0.279-0.854,0.245l-0.513-0.032c0,0-0.085,0-0.129-0.018
	c-0.294,0.116-0.637,0.197-1.066,0.212c-0.341,0-0.513-0.064-0.682-0.096c-1.11,0.261-2.265,0.425-3.29,0.31
	c-0.044-0.016-0.082-0.032-0.131-0.049c-1.664,0.231-3.669,0.294-5.295-0.065l0.172,0.163c-0.77,0-1.539,0-2.306,0h-0.088
	c-1.022,0.166-2.092,0.296-3.333,0.296c0,0,0,0-0.041,0h-0.385l-0.297-0.099c-0.254-0.114-0.598-0.342-0.808-0.637
	c-0.09-0.034-0.09-0.066-0.175-0.117h-0.943c0.344,0.818-5.08,1.883-1.533,2.897c0.935-1.161,7.09,0.344,9.908-0.573
	c0.256,0.556-1.029,0.573-1.539,0.867l-0.169,0.182c0.854-0.213,1.882-0.476,2.946-0.476c0.338,0,0.725,0.05,1.067,0.115V9.3
	c0-0.278-0.638-0.342-0.767-0.573c2.393,0.066,5.552-0.196,6.831,0.295c-0.423-0.819,5.216-0.263,6.111-0.295l-0.169,0.197
	c0.128-0.017,0.294-0.033,0.466-0.033c0.766,0,1.453,0.116,2.092,0.246l-0.123-0.115c0-0.409,0.338-0.656,0.767-0.883
	c1.879-0.049,2.392,0.44,3.071,0.867c0.86-0.049,1.792-0.082,2.73-0.147c3.978-0.214,8.035-0.426,12.053-0.426
	c1.708,0,3.412,0.064,5.038,0.163c0.301-0.605,4.782-0.703,5.292-0.163c-2.561,0.195,3.334,0.966,0.77,1.161
	c-0.082-0.474-3.162,0.312-5.336,0l0.088-0.113c-5.555-0.443-11.663-0.118-17.599,0.212c-0.938,0.048-1.926,0.097-2.818,0.146
	c-0.988,0.427-1.586,0.558-1.757,0.917c-0.166-0.344-0.848-0.165-1.532,0c-0.044,0.066-0.175,0.066-0.26,0.115
	c0.084,0.098,0.26,0.212,0.344,0.278c0.087,0.099,0.166,0.164,0.254,0.229c3.503,0.393,6.921,0.524,10.337-0.032
	c0.725,0.556-2.306,0.983,0,1.178c0.091-0.556,0.516-0.98,1.536-1.178c-0.079,0.507,0.556,0.753,1.498,0.884
	c-2.349-1.048,4.525-0.146,0.9,0.556c0,0,0.085,0.032,0.166,0.032l0.3,0.099l0.042,0.081c0.044,0.212,0.303,0.392,0.515,0.572
	c1.448-0.342,0.77-0.785,0.347-1.341c2.34,0.426,4.01,0.065,6.143-0.296c1.792,1.474,8.331,0.444,9.145-0.293
	c1.408,0.491,5.339,1.309,6.834,0c2.218,0.23,1.792,1.439,3.797,1.751c3.425-0.016,8.929-0.54,16.789,0
	c0.219-1.424,0.766-2.569,2.261-2.046c-1.664-0.622-0.382-1.636,0.731-2.045c-0.262,0-0.513,0-0.731,0l0.131-0.131
	c-0.34,0.082-0.685,0.147-1.025,0.147c-0.682-0.033-1.107-0.278-1.533-0.524c-0.172-0.066-0.259-0.147-0.434-0.213
	c-0.682,0.116-1.535,0.098-2.389,0.082c-0.851-0.033-1.664-0.049-2.049,0.097c-0.169,0.066-0.256,0.198-0.256,0.393
	c0,0.099-0.172,0.164-0.431,0.164c-0.256,0-0.425-0.065-0.425-0.147c-0.085-0.31,0.128-0.507,0.51-0.654
	c0.647-0.246,1.67-0.213,2.695-0.198c0.854,0.017,1.711,0.049,2.224-0.081l0.297-0.081l0.259,0.099
	c0.251,0.098,0.51,0.23,0.723,0.36c0.298,0.179,0.601,0.344,0.892,0.359c0.05,0,0.091-0.015,0.091-0.015
	c0.425-0.524-2.218-0.917-0.041-1.115c0.129,0.426,1.833,0.262,3.028,0.296c0.428-0.72,2.993-0.623,2.311-1.751
	c2.433,0.245,2.352-0.458,3.8-0.574c-0.213,0.655,0.213,1.08,1.492,1.145c0.175-1.176,3.932-0.653,4.614-0.571
	c-0.336,0.704,6.067,1.048,3.805,2.046c1.536-0.165,1.492-0.884,3.028-0.294l-0.04,0.032c0.131-0.017,0.215-0.032,0.387-0.049
	l0.084-0.018h0.169c0.516,0.035,1.026,0.164,1.623,0.296c0.216,0.065,0.256,0.195,0.128,0.294c-0.172,0.081-0.472,0.097-0.726,0.048
	c-0.429-0.115-0.769-0.196-1.063-0.229c-0.307,0.05-0.472,0.065-0.688,0.098l0.125,0.114c-1.451,2.455,4.103,0.967,3.85,2.03
	c0.169-0.31,1.188-0.688,1.492-0.295c-0.6,0.067-0.898,0.262-0.77,0.59c3.631-0.688,1.923,0.36,5.339,1.178
	c1.198-0.296,3.081-0.279,1.536-0.884c3.76,0.738,5.727,1.065,9.139,0c1.754,0.655-0.251,1.146,0,2.046
	c2.396,0.049,4.622,0.017,5.302-0.573c-1.03-0.099-0.855-0.654-1.496-0.885c2.69,0.46,0.466-0.997,2.259-0.882
	c-0.123,1.08,2.652,0.655,5.215,1.717c0.342,0,0.729-0.031,1.067-0.064c0.644-0.376,1.154-0.803,2.096-1.064
	c0.853,0.983,2.861-0.033,3.755,0.556c0.345-0.017,0.641-0.032,0.942-0.048c0.338-0.311,0.982-0.508,2.178-0.508
	c1.157,0.328,1.919,0.328,3.036,0c0.25,0.689-0.089,1.114-0.776,1.457c-1.235,0-2.518,0-3.75,0V13.03
	c-0.472,0.018-1.028,0.049-1.542,0.049v0.018c0,0.294-0.601,0.343-0.769,0.589c3.331-0.015,3.503,0.433,5.339-0.294
	c-0.56,0.786,1.589,0.564,2.264,0.875c9.738-0.743,17.383,0.501,25.117-0.294c-0.425-0.663,0.942-0.646,1.367-0.973
	c-0.042-0.065-0.087-0.147-0.132-0.213c-0.211-0.032-0.294-0.081-0.385-0.163c-1.366,0.131-2.771,0.065-4.142,0
	c-1.747-0.099-3.38-0.181-4.998,0.195c-0.426,0.081-0.941,0.033-1.197-0.13c-0.254-0.164-0.125-0.359,0.302-0.458
	c2.091-0.491,4.229-0.393,6.103-0.296c1.413,0.068,2.694,0.099,3.931-0.064l0.517-0.556c0.125-0.116,0.341-0.196,0.593-0.262
	c0.173-0.294-0.51-0.409,0.26-0.817c-0.26-0.099-0.596-0.198-0.854-0.23c-0.26,0.05-0.426,0.097-0.557,0.163
	c-0.216,0.082-0.517,0.099-0.726,0.031c-0.259-0.08-0.259-0.194-0.084-0.292c0.345-0.131,0.726-0.231,1.025-0.294l0.168-0.034h0.215
	c0.6,0.066,1.156,0.23,1.751,0.41l-0.087-0.099c2.22-0.245,0.856-0.441,0.769-1.162c2.224,0.327,2.821,0.164,3.806-0.587
	c-5.767,0.327,0.764-1.8-1.498-3.209c2.307-0.229,0.895,1.015,3.756,0.59c-1.836-1.67,2.689-0.557,3.08-0.59
	c2.134-0.229,1.28-1.226,2.306-1.75c0.168,0.394,4.015-0.376,4.528,0.574c-0.898-0.082-2.613,0.85-0.772,0.884
	c-0.492-0.843,3.572,0.089,4.983,0.062c-0.424,0.138,0.419,0.444,1.172,0.525l-0.134,0.068c0.301,0.031,0.603,0.097,0.945,0.131
	c0.255,0.032,0.471,0.064,0.725,0.098c0.211,0,0.472,0,0.682,0v0.033c0.345,0,0.599,0.032,0.898,0.048l0.342,0.066l0.126,0.098
	c0.089,0.048,0.302,0.146,0.432,0.229c0.51-0.132,0.599-0.427,0.51-0.771c2.137-0.244,1.962,0.411,3.845,0.296
	c-0.251,0.67-0.939,1.194-1.536,1.735c2.946-0.148,1.027,1.571,3.162,1.735c0.505-0.115,1.152-0.23,1.534-0.328l0.174-0.033
	c0.044,0,0.044-0.032,0.081-0.032c0.599-0.113,1.455-0.163,2.649-0.195c0.773-0.786,1.112-0.704,1.542-1.146
	c0.166,0.327,0.851,0.457,1.537,0.588l0.085,0.131c0-0.015,0-0.031,0.042-0.031c0.297-0.294,0.641-0.556,1.451-0.738
	c0.129-0.017,0.215-0.017,0.299-0.017c0.216,0,0.425,0.032,0.51,0.099c0.177,0.114,0.09,0.262-0.209,0.328
	c-0.471,0.097-0.639,0.228-0.984,0.507c0,0.017,0,0.049-0.039,0.049c0.638,0.131,1.322,0.163,2.005,0.163
	c0.342-0.262,0.896-0.426,1.879-0.457c0-0.034,0.084-0.066,0.125-0.099c0.216-0.196,0.733-0.328,1.279-0.328
	c0.219,0,0.393,0.018,0.561,0.049c0.725,0.116,1.025,0.443,0.774,0.703c-0.262,0.198-0.517,0.344-0.774,0.507l0.6,0.016
	c1.023,0,0.679-0.524,1.538-0.587c1.836,0.391-1.364,0.883,0.766,1.161c2.136,0.05,4.188-1.472,5.295-0.866
	c-1.194,0.097,0.942,1.375,1.542,1.751c0.038-0.754,3.543-0.409,1.535-1.163c3.03,0.622,1.749-1.048,6.069-0.295
	c-0.605,0.885-2.822,1.49,1.535,1.458l-0.091,0.081c0.259-0.032,0.472-0.068,0.772-0.099c0.511-0.066,1.109-0.147,1.711-0.147
	c0.341,0,0.683,0.049,0.985,0.115c0.038,0,0.038-0.017,0.038-0.017c0.042,0,0,0.017,0.042,0.017l0.68-0.099h0.138
	c0.764,0.066,1.192,0.231,1.579,0.393c1.235-0.147,2.518-0.18,3.713-0.195c0.768-0.017,1.451-0.035,2.138-0.067
	c0.039,0,0.083,0,0.083,0c0.212,0,0.427,0.049,0.427,0.132c0.044,0.099-0.084,0.179-0.339,0.197
	c-0.773,0.032-1.541,0.065-2.266,0.065c-1.154,0.017-2.351,0.049-3.503,0.196c-0.173,0.13-0.042,0.229,0.298,0.458
	c0.344,0.212,0.812,0.524,0.258,0.884l-0.17,0.049c-0.34,0.081-0.682,0.146-1.071,0.213l-0.338,0.016
	c-0.174,0.214-0.174,0.409-0.087,0.604c1.753-0.457,3.203-0.964,3.375-1.341c-0.345,0.802,2.818,0.278,3.072,0.884l-1.196,0.132
	l1.196,0.163c1.669,0.852,2.739,1.17,1.495,2.03c0.772,0,0.9-0.23,1.498-0.287l0.169-0.024c0-0.058-0.128-0.107-0.086-0.172v-0.164
	c0.086-0.343,0.17-0.779,0.984-1.154l0.215-0.099l0.255-0.031c1.541-0.198,2.736-0.294,3.889-0.294l-0.047-0.099
	c6.964,0.132,7.266,0.785,14.445,0.294c0.164,0.212,0.039,0.557,0.761,0.573l-0.084,0.049c0.043,0,0.084,0,0.084,0
	c0.6,0.131,1.198,0.343,1.711,0.532c0.428,0,0.901,0,1.364,0c0-0.384-1.364-0.27-1.533-0.581c5.933-0.442,5.811-0.442,7.604,0.875
	c-2.691,0.032,1.616,0.966-0.773,0.875c-0.087-0.646-3.246-0.122-4.527-0.293c0,0.293-0.644,0.352-0.772,0.588
	c3.077,0.311,4.278,0.253,6.752,0.059c0.425-0.393,1.368-0.583,2.095-0.713c1.029-0.195,1.492-0.293,1.325-0.686l-0.085-0.149
	l0.297-0.088c0.639-0.205,1.408-0.27,2.094-0.27c0.553,0,1.106,0.048,1.576,0.082c0.256,0.015,0.472,0.031,0.726,0.031
	c0.09,0,0.174,0,0.299,0c0.646,0,1.244,0.073,1.841,0.139c0.42,0.041,0.848,0.081,1.193,0.098c-0.172-0.026-0.384-0.057-0.597-0.075
	c-0.212-0.016-0.423-0.031-0.596-0.049c-0.387-0.032-0.644-0.196-0.515-0.343c0.09-0.13,0.389-0.229,0.726-0.229
	c0.044,0,0.132,0,0.173,0c0.129,0.033,0.299,0.033,0.464,0.049c0.689,0.049,1.455,0.115,2.056,0.31l0.172,0.082l0.125,0.303
	c0.466,0.123,0.981,0.205,1.495,0.18c0.428-0.016,0.811-0.081,1.07-0.213c0.215-0.114,0.64-0.122,0.982-0.041
	c0.256,0.09,0.341,0.254,0.083,0.371c-0.513,0.235-1.193,0.383-2.051,0.406c-0.851,0.034-1.704-0.096-2.43-0.301
	c-0.945,0.114-1.883,0.048-2.692-0.041c-0.554-0.058-1.027-0.115-1.499-0.115c-0.087,0-0.168,0-0.209,0.009
	c-0.042,0-0.042-0.017-0.09-0.017c-0.335-0.009-0.635-0.032-0.935-0.058c-0.938-0.057-1.667-0.105-2.308,0.017
	c0.087,0.654-1.196,0.884-2.13,1.056c-0.777,0.147-1.199,0.286-1.373,0.532l0.344-0.049c7.647,0.867,12.386,0.54,19.047,0.589
	c-0.251,0.515,8.588-0.236,12.175-0.294c1.664,0.417-0.984,0.712,0.729,0.875c-0.09-0.63,2.736-0.13,3.841-0.294l-0.125,0.156
	c0.551-0.099,1.235-0.205,2.005-0.205c0.425,0,0.858,0.049,1.197,0.123l-0.043-0.074c1.62-0.662,3.587-0.891,5.339-0.875
	c-0.941,0.123-1.539,0.376-1.539,0.875c2.308,0.254,8.804,0.908,12.216-0.286c0.16,0.948,6.156,1.072,6.189,0.691
	c0.871,0.754,1.933-0.079,2.953,0.766c0.256-1.023,2.608-0.303,4.523,0c1.542-0.908,6.07,0.057,9.15-0.876
	c0.338,0.498-1.119,0.745,0,0.876c0.251-0.263,3.413-0.778,3.069-0.294v0.041c0.428-0.068,0.769-0.131,1.279-0.262
	c0.262-0.066,0.6-0.131,0.947-0.212c0.039-0.017,0.082-0.017,0.169-0.026l-0.087-0.123c6.237-0.392,7.349,1.056,10.634,1.17
	c-3.154-0.106,5.297-1.332,6.112-0.294l-1.151,0.146l1.151,0.147c0.168,0.329,0.852,0.451,1.535,0.583
	c1.792-0.893,3.59,0.212,2.263-1.17c3.207,0.457,7.65-0.712,9.912,0c-0.299-0.417-0.898-0.492,0-0.876
	c-1.323,0.205-2.35,0.328-3.033,0c1.67-0.318,2.045-1.153,3.759-1.457c-0.388,0.018-1.624-0.016-2.089-0.13
	c0.807-0.163,3.03-0.974,3.625-1.039c5.172-0.564,4.612,0.54,6.112,0.876c-0.773-1.023-0.642-1.638,0.766-2.915
	c-2.477,0.558,0.04-0.261-2.265-0.588c1.63,0,2.224-0.392,4.019-0.294c0-0.017,0-0.032,0-0.032c0.77-0.458,1.876-1.179,3.503-1.179
	c0.298,0,0.638,0.033,1.023,0.099l0.388,0.066l0.042,0.194c0.04,0.411,0.381,0.46,1.961,0.493c0.903,0,2.051,0.031,2.904,0.31
	c0,0,0,0,0.044,0c0.085,0,0.129,0.017,0.213,0.032c0.938-0.016,1.963-0.016,3.077-0.016c0.766,0,1.579,0,2.39,0.016
	c0.216-0.115,0.343-0.229,0.597-0.342c0.17-0.1,0.47-0.149,0.772-0.149c0.169,0,0.427,0.017,0.597,0.082
	c0.388,0.131,0.474,0.36,0.172,0.507c-0.172,0.065-0.252,0.148-0.428,0.213h0.042c1.75,0.099,1.67,0.916,3.033,1.178l-0.384,0.425
	l1.154-0.131c0.168,0.426,2.135,1.105,3.074,2.03c0.424,0,0.941,0,1.456,0v-0.434c0-0.098,0.172-0.172,0.423-0.172
	c0.256,0,0.425,0.074,0.425,0.172v0.448c0.514,0.076,0.766,0.239,0.684,0.525c0.429-0.049,0.855-0.131,1.283-0.223l-0.513-0.023
	c-0.941-0.687,0.13-0.539-0.77-1.456c2.736,0.098,1.883,0.803,4.617,0.286c0.853,0.917,0.338,0.777-0.773,1.464l-0.169-0.015
	c0.342,0.515,0,0.998-0.389,1.398c0.731-0.007,1.503-0.032,2.185-0.131l-0.083-0.09c0.638-1.791,1.232-1.578,3.026-2.038
	c1.154,0.075,0.517,0.64,0,0.875c0.219,0,0.47,0,0.641,0c0.264-0.057,0.43-0.104,0.642-0.163c0.169-0.048,0.384-0.081,0.64-0.081
	c0.26,0,0.599,0.049,0.773,0.147c0.338,0.173,0.254,0.417-0.174,0.549c-0.425,0.114-0.855,0.229-1.325,0.327l0.299,0.098
	c-0.768,0.262-0.251,1.04-2.218,0.876c0.087,0.057,0.172,0.122,0.172,0.196c-0.084,0.228-0.3,0.457-0.513,0.678v0.026l0.297-0.026
	c0,0.148,0,0.303,0,0.451c0.297,0.042,0.554,0.064,0.766,0.049c0.219-0.083,0.47-0.164,0.729-0.246c0-0.376,0-0.752,0-1.129
	c1.07-0.018,1.708,0.129,2.306,0.287c-0.039-0.549,0.6-0.614,1.533-0.287c-1.358-0.361,0.863-2.808,2.314-2.047
	c-2.138,0.769,2.649-0.441,3.587,0.155l1.029,0.189c0.423-0.098,0.848-0.181,1.441-0.376c0.091-0.041,0.263-0.058,0.392-0.058
	c0.165,0,0.339,0.023,0.471,0.073c0.211,0.099,0.168,0.253-0.087,0.336c-0.6,0.222-1.113,0.368-1.667,0.483
	c-0.044,0.041,0.044,0.074-0.044,0.115c0.211,0.081,0.429,0.164,0.683,0.229l0.941-0.179c0.043-0.009,0.087-0.009,0.174-0.009
	l-0.087-0.081c4.097,0.049,8.879,0.28,9.139,1.457c1.885-0.074,4.745-1.267,5.294-0.876c-0.423,0.016-0.852,0.048-0.725,0.294
	c0,0.295,0.601,0.343,0.725,0.582v0.008c0.302,0.016,0.554,0.033,0.86,0.057l-0.09-0.065c0.856,0.008,1.413-0.09,1.923-0.205
	c0.129-0.173,0.169-0.443-0.129-0.752h-1.366c-0.513,0-0.941-0.157-0.941-0.352c0-0.198,0.428-0.36,0.941-0.36h1.495
	c0.129,0,0.256,0.04,0.385,0.055c0.428-0.073,0.856-0.114,1.279-0.114c0.432,0,0.816,0.032,1.151,0.074
	c0.299,0.034,0.477,0.147,0.387,0.255c-0.087,0.114-0.425,0.172-0.684,0.138c-0.47-0.057-1.025-0.057-1.704,0.042
	c0,0.024,0,0.041-0.042,0.056c0.552,0.507,0.38,0.942,0.17,1.163h0.209c0.259,0,0.513,0,0.769,0
	c0.047-0.516,1.027-1.564,3.032-0.876c-0.725,0.008-0.934,0.484-0.039,0.572c0.169-0.039,0.335-0.081,0.51-0.113
	c0.773-0.14,0.811-0.172,0.773-0.263c-0.086-0.139,0.165-0.277,0.51-0.302c0.09,0,0.09-0.009,0.174-0.009
	c0.297,0,0.597,0.09,0.635,0.212c0.303,0.508-0.809,0.712-1.492,0.835c-0.087,0.017-0.172,0.042-0.262,0.059
	c0.472,0.973,1.883,0.236,2.995,0.76c-0.938,0.024-0.772,0.597,0.428,0.581c0.258-0.057,0.51-0.123,0.768-0.181
	c0-0.008,0-0.008,0-0.008c-0.51-0.711-0.171-1.439,0.684-2.029c-0.256-0.018-0.47-0.05-0.6-0.132
	c-0.169-0.13-0.042-0.294,0.302-0.368c0.298-0.057,0.597-0.082,0.895-0.082c0.174,0,0.338,0.017,0.466,0.026
	c0,0,0.044,0,0.044-0.009c0.043-0.008,0.087-0.04,0.087-0.04c0.169-0.017,0.213-0.032,0.255-0.067
	c-0.255-0.181-0.086-0.399,0.427-0.498c0.129-0.024,0.26-0.04,0.431-0.04c0.34,0,0.683,0.065,0.852,0.195l0.431,0.328l-0.172,0.164
	c-0.09,0.114-0.428,0.312-1.028,0.474c0,0.009,0,0.018,0,0.026c-0.854,0.449-1.537,1.089-1.196,1.693
	c0.169-0.008,0.385-0.008,0.641-0.032c0.471-0.032,0.981-0.082,1.582-0.082c0.085,0,0.256,0.008,0.341,0.016
	c3.162-0.727,5.126,0,6.574-1.095c-1.109-0.081-0.898-0.646-1.534-0.876c0.851-0.245,2.053-0.384,3.798-0.294
	c-0.213,0.663,0.219,1.096,1.495,1.17c0.044-0.262,1.023-0.336,1.414-0.091c0.297,0.058,0.636,0.139,1.025,0.239l-0.134-0.147
	l1.16,0.147l-0.384-0.443c0.25,0,0.51,0,0.768,0c0-0.294-0.603-0.343-0.768-0.581c1.961-0.204,1.616,0.467,2.86,0.549
	c0.124-0.122,0.299-0.246,0.299-0.359l0.04-0.067l0.128-0.041c0.768-0.236,1.622-0.358,2.48-0.384
	c-0.172-0.352,0.084-0.678,0.425-0.981c0.129-0.09,0.384-0.14,0.599-0.14c0.128,0,0.212,0.009,0.299,0.024
	c0.338,0.067,0.468,0.214,0.298,0.337c-0.214,0.177-0.342,0.351-0.385,0.515c0.898,0.106,0.301,0.778,1.321,0.834l0.131,0.025
	l0.215-0.155l0.087-0.074c0.427-0.146,0.766-0.285,1.282-0.335l0.166-0.018l0.172,0.018c0.601,0.04,0.982,0.213,1.37,0.369
	c0.209,0.096,0.42,0.186,0.679,0.253l0.172,0.049l0.09,0.089c0.126,0.107,0.164,0.223,0.251,0.351
	c0.043,0.026,0.09,0.057,0.09,0.083c0.082,0.016,0.172,0.016,0.213,0.032c0.341,0,0.639,0.031,0.982,0.066
	c0.381,0.039,0.637,0.187,0.51,0.336c-0.085,0.154-0.467,0.244-0.854,0.203l-0.168-0.017v0.5c0.255,0.05,0.421,0.09,0.725,0.147
	l0.809,0.147c0.301-0.024,0.685-0.066,0.938-0.081l0.348-0.017c0.084-0.008,0.121-0.008,0.162-0.008c0.26,0,0.519,0.05,0.687,0.114
	c0.514-0.031,1.027-0.064,1.537-0.138c0.6-0.083,1.2-0.156,1.923-0.196c0.301-0.295,0.898-0.434,1.408-0.573
	c0.175-0.049,0.341-0.066,0.557-0.066c0.301,0,0.558,0.049,0.769,0.147c0.303,0.163,0.212,0.385-0.211,0.499l-0.258,0.065
	c-0.082,0.017-0.082,0.024-0.082,0.033c0.896,0.449,2.132-1.301,3.585-0.386l-0.173,0.189c0.726-0.163,1.542-0.228,2.305-0.228
	c0.256,0,0.515,0,0.731,0.008c0.47,0.008,0.895,0.008,1.279-0.008c0.258,0,0.47,0.066,0.557,0.163c0,0.097-0.169,0.188-0.431,0.196
	c-0.51,0.017-0.935,0.017-1.451,0.009c-0.773-0.009-1.449,0.015-2.096,0.106c-0.12,0.589-1.107,0.492,0.043,1.022
	c-1.876-0.048-2.389,0.449-3.073,0.876c1.538-0.491,1.023,0.025,3.073,0l-0.083,0.097c0.6-0.091,1.154-0.137,1.707-0.137
	c1.11,0,2.224,0.13,3.202,0.261c0.989,0.123,1.968,0.246,2.91,0.246c0.043,0,0.043,0,0.043,0l-0.171-0.172
	c1.366,0.017,2.389-0.065,3.073-0.295c0.341,0.508,1.027,0.883,1.836,1.203c-0.087-0.058-0.219-0.106-0.219-0.181v-0.546
	l0.648-0.108c4.525-0.712,10.629-0.712,16.06-0.712h1.75c0.129-0.033,0.258-0.065,0.429-0.065c0.769-0.155,1.623-0.213,2.304-0.231
	c1.154-0.032,1.455-0.064,1.708-0.253c0.087-0.08,0.174-0.148,0.428-0.194v-0.811c0-0.123,0.254-0.23,0.556-0.23
	c0.339,0,0.596,0.107,0.596,0.23v0.736c0.468,0.008,0.901,0.032,1.37,0.066l-0.042-0.075c3.072-0.015,5.167-0.434,8.711-0.293
	c0.425-0.115,0.769-0.254,1.067-0.401c-0.298-0.229-1.239-0.196-1.406-0.467c0.935-0.121,1.537-0.375,1.537-0.874
	c2.217,0.768,4.654-0.409,5.298,0c-0.429,0.016-0.857,0.039-0.776,0.287l-0.038,0.065c1.41-0.23,2.563-0.541,3.712-0.893
	c1.582-0.481,3.246-0.98,5.724-1.185l0.298-0.026l0.302,0.067c0.726,0.195,1.193,0.449,1.661,0.705
	c0.05,0.031,0.132,0.065,0.216,0.105c0.346,0,0.684,0,1.028,0c0.084-0.105,0.126-0.204,0.17-0.302l-0.086,0.008
	c-2.905,0.09,1.321-1.439,2.262-1.751l0.385,0.148l0.385-0.148c0,0.099,0,0.197,0,0.294l0.133,0.148
	c1.061-0.392,2.303-0.631,3.584-0.844c0.557-0.089,1.108-0.194,1.621-0.294c0.13-0.031,0.259-0.031,0.381-0.031
	c0.26,0,0.559,0.049,0.647,0.146c0.211,0.148,0.084,0.319-0.263,0.401c-0.596,0.115-1.188,0.212-1.792,0.319
	c-0.941,0.155-1.749,0.327-2.518,0.541c2.178,0.761,0.295,0.4-1.025,1.071l-0.341-0.04c0.388,0.195,0.766,0.384,1.066,0.556
	l0.132,0.058c0.381-0.032,0.726-0.23-0.09-0.279c0.989-0.826,5.854-1.26,4.568-2.046c2.828,0.206,4.792,0.451,6.843,0l0.382-0.049
	c-0.382-0.172-0.729-0.401-1.069-0.614l-0.087,0.082c-0.426,0-0.854,0.228,0,0.286c-1.192,0.294-4.103,0.5-5.296-0.286
	c0-0.377,0.942-0.408,0.773-0.867c-0.604-0.065-1.546-0.016-1.546-0.294l0.089-0.017c-0.254-0.016-0.56-0.049-0.811-0.065
	c-0.597-0.066-1.151-0.114-1.747-0.13l0.168,0.212c-0.127,0.328-1.197,0.312-2.267,0.294c0.047,0.36,0.989,0.392,0.726,0.867
	c-0.977-0.015-0.679-0.507-1.492-0.589c0-0.098,0-0.197,0-0.279c-1.326-0.032-2.351,0.067-3.028,0.279
	c-0.047-0.883,1.573-1.129,2.259-1.751c2.179-0.065,3.888,0.066,4.575,0.588c0.381,0.034,0.764,0.034,1.107,0.083
	c0.421,0.05,0.854,0.082,1.236,0.098c0.048,0,0.048-0.016,0.084-0.016l-0.126-0.166c1.193-0.389,3.078-0.389,1.496,0.296
	c2.35,0.213,1.495-0.803,3.799-0.59l-0.082,0.165c0.682-0.033,1.366-0.033,1.965,0c0.765,0.048,1.368,0.081,1.919-0.033
	c0.131-0.032,0.258-0.032,0.386-0.032c0.342,0,0.687,0.066,0.807,0.179c0.216,0.181,0.047,0.377-0.381,0.476
	c-1.024,0.197-2.047,0.148-2.947,0.098c-0.382-0.018-0.64,0-0.941,0l0.048,0.032c0.165,0.23,0.636,0.328,1.536,0.294
	c-0.172,0.212,0,0.557-0.769,0.573c0.168,0.098,0.341,0.212,0.51,0.294c0.854,0,1.707,0,2.562,0v0.017
	c0-0.163,0.085-0.311,0.216-0.425l0.083-0.082l0.216-0.017c0.466-0.032,0.729-0.148,1.025-0.311
	c0.085-0.049,0.169-0.081,0.342-0.081c0.083,0,0.168,0,0.255,0.032c0.173,0.033,0.254,0.147,0.082,0.23
	c-0.254,0.163-0.638,0.36-1.279,0.425c-0.082,0.098-0.125,0.181-0.125,0.279c0.125,0.221,0.55,0.303,0.678,0.515l-0.381,0.434
	l1.151-0.139c0.682,0.786,1.663-0.859,3.036-0.016c0-0.148,0.084-0.279,0.172-0.377l0.083-0.081l0.212-0.023
	c0.425-0.059,0.896-0.092,1.41-0.117c0,0,0,0,0.047,0c0.207,0,0.384,0.066,0.466,0.149c0,0.098-0.172,0.18-0.429,0.195
	c-0.339,0.026-0.684,0.041-0.984,0.075c-0.039,0.058-0.039,0.163-0.039,0.245c1.409,0.049,2.778,0.31,3.929,0.59l0.172,0.056
	l0.084,0.09c0.169,0.221,0.087,0.541-0.084,0.876c0,0.024,0,0.04,0,0.065l0.297,0.032c0.044,0.01,0.044,0.033,0.129,0.041
	c1.028-0.163,2.136-0.336,3.293-0.336c0.765,0,1.491,0.115,2.13,0.319l0.302-0.115c-0.171-0.695,0.427-1.309,1.111-1.905
	c0.254-0.261,0.507-0.508,0.726-0.753l0.046-0.081l0.167-0.049c0.47-0.098,0.852-0.131,1.192-0.131c0.173,0,0.345,0,0.517,0.017
	c0.344,0.017,0.51,0.132,0.468,0.245c-0.042,0.115-0.384,0.205-0.64,0.18c-0.298-0.017-0.51-0.017-0.765,0.024
	c-0.17,0.237-0.429,0.483-0.687,0.713c-0.635,0.581-1.113,1.128-0.938,1.726c0,0.009,0,0.009,0.042,0.009c0,0,0,0,0,0.007
	c0.209,0,0.471-0.007,0.725,0c1.027,0.018,1.965,0.033,2.771-0.179l0.393-0.106l0.338,0.132c0.345,0.123,0.557,0.285,0.77,0.483
	c0.127,0.097,0.341,0.212,0.512,0.327h0.725c0.044,0,0.044,0.008,0.044,0.008c0.425-0.114,0.726-0.212,1.022-0.327l0.259-0.091
	h0.344c0.042,0,0.085,0,0.085,0c1.665,0,3.249,0.221,4.741,0.442h0.039l-0.039-0.024c12.689-2.144,20.628,0.475,35.02,0.582
	l0.09,0.278c2.136-0.294,4.141-0.294,6.106-0.286c1.624,0.009,3.077,0.017,4.66-0.148c0.038-0.008,0.123-0.008,0.213-0.008
	c0.342,0,0.68,0.091,0.766,0.23c0.128,0.172-0.129,0.343-0.598,0.385c-1.707,0.181-3.417,0.181-5.084,0.165
	c-1.664,0-3.288,0.016-4.909,0.204l0.302,0.057c-2.185,0.483-6.537-0.139-3.037,1.17c2.518-0.81,3.161-0.523,5.297,0.294
	c0.082-0.376,0.982-0.409,0.77-0.874c2.089-0.032,1.532,0.482,3.068,0c0.094,0.433-0.288,1.071,0.776,1.161
	c1.711-0.237,5.296-2.159,3.759-0.286c3.799,0.293,2.475-0.925,5.383-0.294c0-0.58,0-1.17,0-1.75l1.106,0.146l-0.384-0.44
	c6.154-0.214,9.829,0.327,16.786,0.294l-0.085,0.073c0.344-0.057,0.6-0.105,0.765-0.154c0.176-0.034,0.305-0.05,0.432-0.05
	c0.254,0,0.47,0.041,0.599,0.123c0.255,0.123,0.168,0.302-0.17,0.384c-0.262,0.067-0.597,0.124-0.941,0.189l0.169,0.017
	c-0.209,0.417-1.279,0.491-1.539,0.874c2.393-0.367,4.745-0.195,6.838,0c1.969-0.963-2.477-1.259,0.769-1.749
	c2.818,0.524,5.89,0.041,11.45,0.588c0.167,0.55-0.856,0.639-0.773,1.162c3.246-0.253,2.39-0.204,3.803,0.59
	c2.519-0.94,1.239-0.311,2.264,0.286c4.223-0.678,7.216-0.253,8.373-1.455c0.079,0.145,0.166,0.252,0.554,0.27
	c0.212-0.125,0.466-0.263,0.55-0.352c0.087-0.066,0.259-0.107,0.429-0.107c0.09,0,0.17,0.009,0.215,0.018
	c0.259,0.04,0.381,0.154,0.213,0.252c-0.129,0.14-0.428,0.344-0.815,0.547l0.386-0.049c1.456,0.131,1.919,0.631,3.845,0.59
	c0.085-0.549,0.471-0.981,1.499-1.169c0.294,0.497,0.978-0.068,2.261,0c-0.259,0.899-2.565,1.128,0,1.75
	c5.211,0.237,6.878-0.876,11.446-0.876l0.26,0.115c0.252-0.163,0.466-0.335,0.896-0.515c0.211-0.09,0.462-0.13,0.721-0.13
	c0.254,0,0.513,0.031,0.688,0.098c0.424,0.137,0.471,0.385,0.083,0.539c-0.172,0.076-0.259,0.148-0.344,0.213
	c0.172,1.219,1.326,0.508,3.759,0.557l-0.169,0.195l0.466-0.098c0.986-0.228,1.879-0.456,2.778-0.687
	c0.085-0.393-2.557-1.08-0.77-1.161c-0.294,0.596,4.787-0.64,5.343,0.294c7.05-1.098,13.968-0.967,18.281,0
	c-0.175,0.94,1.92,1.071,4.567,2.037c-2.387-0.041-2.562,0.761-5.296,0.59c0.044,0.089,0.09,0.172,0.26,0.31
	c0.168,0.139,0,0.302-0.34,0.377c-0.344,0.057-0.812,0.008-0.988-0.131c-0.213-0.172-0.381-0.351-0.381-0.572l-0.087,0.017
	c-0.258-1.032-2.049,1.022-2.306,0c0.6-0.068,0.894-0.247,0.772-0.59c-3.159-0.14-2.695-0.105-4.959-0.262
	c-0.089,0.075-0.17,0.122-0.256,0.206c-0.258,0.316-0.597,0.701-1.796,0.825l0.17,0.105c0.432,0.713,2.821,0.655,4.527,0.876
	c0.344,0.509-1.11,0.754,0,0.874c4.583-0.568,10.796,0.981,16.297,1.643h5.292v0.113l0.308-0.002
	c-0.099,0.015-0.207,0.02-0.308,0.034l0.5,276.356H0L0.5,26.243z"/>
</svg>
