<?xml version="1.0" encoding="utf-8"?>
<!-- Generator: Adobe Illustrator 17.0.0, SVG Export Plug-In . SVG Version: 6.00 Build 0)  -->
<!DOCTYPE svg PUBLIC "-//W3C//DTD SVG 1.1//EN" "http://www.w3.org/Graphics/SVG/1.1/DTD/svg11.dtd">
<svg version="1.1" id="header-svg" xmlns="http://www.w3.org/2000/svg" xmlns:xlink="http://www.w3.org/1999/xlink" x="0px" y="0px"
	 width="1366px" height="104px" viewBox="0 0 1366 104" enable-background="new 0 0 1366 104" xml:space="preserve">
<path fill-rule="evenodd" clip-rule="evenodd" fill="#FFFFFF" d="M1367.959,86.5l-0.015,3.483c0,0,0.037,0.656,0.055,0.981
	c-7.514-0.468-15.071,1.006-18.636-0.371c-0.457,0.368-1.336,0.628-1.795,0.997c1.336-0.363,2.927-0.21,2.805,0.469
	c-1.383,0.053-3.426-0.062-3.691,0.273c0.386,0.345,1.139,0.405,0.041,0.735l-1.386,0.133l0.488,0.364
	c-10.565,0.798-19.332,0.603-31.47,0.704c1.853-0.013-0.651,0.238-0.914,0.252c-5.616,0.321-11.327,0.066-17.599,0.119
	c-9.92,0.087-19.567,1.16-24.992,0.659c0.517-0.002,1.041-0.206-0.013-0.245c-5.444,0.61-13.595-0.193-16.637,0.849
	c0.049-0.759-2.838-0.711-5.594-0.699c0.013,0.245,0.025,0.49,0.038,0.736l-1.393-0.112l-0.448,0.371
	c-1.181-0.006-1.298-0.307-2.791-0.227c-0.133,0.292,0.194,0.697-0.889,0.743c-2.338-0.643-2.22-0.348-2.778,0.019
	c-3.562-0.721-5.545-0.035-9.288-0.428c-0.081,0.277,1.37,0.373,0.025,0.49c-1.686-0.405-6.328-0.443-6.547-1.184
	c-0.182,0.3-1.018,0.159-1.851,0.013l0.447-0.369l-1.387,0.13c-2.404,0.654-0.749-0.391-3.72-0.22
	c0.009,0.248,0.769,0.286,0.953,0.484c-8.638-1.487-23.095,0.4-31.424,1.685c1.454-1.172-2.527-0.956,1.795-1.241
	c-1.207-0.188-5.243-0.844-5.585-0.453c1.656,0.11-0.397,0.266-0.906,0.497c1.72,0.026,0.606,0.828,1.896,0.969
	c-1.448,0.032-3.209-0.011-2.745,0.509c-4.115-0.537-7.389-1.358-10.247-0.911c-0.699,0.11,1.801,0.416,0.024,0.49
	c-0.102,0.004-1.077-0.54-1.876-0.478c-2.862,0.224-8.249,1.72-12.03,0.328c-1.773,0.769-5.708,0.152-8.323,0.299
	c-0.491,0.03-1.816,0.525-2.756,0.509c-0.352-0.004-0.923-0.495-1.877-0.477c-1.33,0.025-1.531,0.49-2.757,0.508
	c-1.252,0.025-6.013-0.951-5.545,0.283c-6.134-0.06-13.182,0.421-17.598,0.364c-2.236,0.447-20.063,0.286-26.83,0.917
	c-3.132-0.901-9.907-0.62-16.726-0.87c2.321,0.461-0.786,0.72-3.671,0.762c-7.728,0.114-17.758,0.948-23.161,0.156
	c-0.83,0.435-3.226,0.47-4.601,0.767c-0.459-0.99-3.348,0.23-4.663-0.704c-9.479,0.534-18.961-0.076-31.5,0.212
	c-0.638-0.959-3.178-0.055-6.492,0.044c-3.783-1.28-5.722,0.369-10.216-0.669c0.394,1.356-10.175-0.978-16.659,0.604
	c-1.64-0.772-5.637-0.191-8.373-0.68c0.483,0.087,0.632-0.234-0.101-0.396c0.151-0.039-0.043-0.07-0.842-0.087
	c0.361,0.007,0.635,0.041,0.842,0.087c-0.727,0.19-10.116,0.59-5.446,0.678c-4.653-0.148-6.064,0.196-6.505-0.445
	c-5.826,1.183-15.966-0.665-24.101-0.083c-0.081,0.008-0.934,0.966-1.843,0.258c1.988-0.229-0.561-0.123-1.862-0.233
	c0.892,0.076-0.773-0.655-1.864-0.23c0.203-0.078-0.591,1.308-2.761,0.262c-0.553-0.264,0.751,0.212-2.779,0.264
	c-5.877,0.09-14.198-0.806-20.379,0.137c-0.213-0.188-0.04-0.481-0.946-0.482c-0.203,0.953-6.862-0.265-9.245,0.55
	c-0.381-0.417,1.354-0.638-0.028-0.735c-0.889,1.019-2.765,0.374-5.523,1.016c0.227-0.853-5.74,0.234-4.658-0.701
	c-4.388,0.551-8.966-0.361-12.061-0.411c0.044,0.003-0.025,0.492,0.018,0.492c-4.255-0.038-7.818,0.085-11.144-0.663
	c0.003,0.248,0.763,0.287,0.945,0.485c-16.775,0.144-33.573,0.48-48.194-0.166c-1.908,0.557-3.886,0.488-5.556,0.037
	c2.009,0.743-3.071,0.079-5.561,0.037c-9.408-0.153-17.987,0.159-23.159,0.156c-0.068-0.946-5.551-0.187-2.786-0.226
	c-16.538,0.231-41.511-0.675-54.677-0.12c-0.21-0.187-0.036-0.48-0.941-0.482c-4.158,0.191-10.102,0.525-11.13-0.415
	c-5.591,1.824-17.136-0.762-19.442,0.376c0.207-0.536-3.949-0.507-3.71,0.025c-6.342-0.341-13.081,0.081-16.706-0.867
	c1.215,0.52-1.119,0.673-2.766,0.264c-0.092-0.023-0.151-0.039-0.199-0.052c-0.104-0.039-0.159-0.044,0,0
	c0.234,0.088,0.681,0.339-0.717,0.548c-3.213,0.483-8.915-0.43-9.277-0.427c-0.06,0.001,0.094,0.485,0.014,0.489
	c-2.891,0.199-10.979-0.118-12.049-0.408c0.263,0.072,2.759-0.49,0.905-0.493c0.066,0-4.189,0.793-3.685,0.757
	c-3.925,0.287-7.745-0.392-12.982-0.403c0.453,0.001-0.805,0.484-0.91,0.496c-0.505,0.065-3.783-0.245-4.643-0.214
	c-1.367,0.053-6.542,0.819-10.187,0.069c-1.221-0.598,2.693-1.032-0.033-1.22c-2.357,0.039-2.165,0.924-0.893,1.226
	c-3.991-0.243-1.186-0.105-2.775,0.264c-9.121-1.243-12.154,0.212-20.394-0.594l-0.471-0.364l-0.455,0.37
	c-1.769-0.093-1.695-0.688-4.646-0.458c-0.001,0.242,0.757,0.284,0.937,0.483c-9.449,0.106-10.67-0.891-19.474-0.602
	c0.006,0.244,0.012,0.486,0.018,0.733c-2.883-0.303-2.64,0.082-6.478,0.044c-0.233-0.833-2.96-0.746-3.711-0.222
	c-7.434-1.882-23.814-0.502-32.463-1.247c-2.455,0.941-1.717,0.711-1.815,1.478c-4.595,0.135-0.542-0.726-2.803-0.959
	c-12.051-0.391-22.728-1.085-32.428-0.268c-2.809-1.103-7.479-0.152-12.06-0.406c-0.547-0.504-1.796-0.82-3.722-0.951
	c-0.609,0.884-5.848,0.137-6.486-0.444l1.381-0.294c0,0-0.477-0.445,1.373-0.457c-0.053-0.151-0.136-0.289-0.924-0.238
	c0.042-0.151,0.125-0.291,0.914-0.251c-0.387-0.414-1.193,0.06-2.769,0.019c-0.004,0.245,0.748,0.283,0.929,0.482l-1.38,0.294
	l0.477,0.445c-1.615,0.231-3.564,0.569-1.832,0.989c-3.871,0.391-5.241-0.225-9.252,0.55l-0.475-0.363l-1.388-0.112
	c-3.103-0.518-10.549,0.604-9.246,1.283c-3.163-0.763-6.479-0.182-9.283-1.158c-3.791,0.49-5.293,0.554-11.1,0.808
	c-0.044-0.337,0.427-0.539,0.91-0.739c-5.039-0.287-7.641-0.045-12.961,0.332c-0.106-0.296-0.287-0.577-1.859-0.477
	c0.059-0.789,2.343-1.293-1.883-1.45l0.462-0.369l-1.398-0.113c1.905-0.909-1.043-0.929-2.801-1.446
	c-3.672,0.41-1.18,0.881-3.681,1.49l-0.458,0.368l1.387,0.114c-6.29,0.197-14.737,0.258-21.312-0.832
	c0.715-0.061,1.823-0.02,1.851-0.255l0.451-0.248l-0.46-0.241c2.126,0.058,1.008-0.713,2.752-0.752
	c-0.252-0.575-3.436,0.043-3.696,0.269l-1.383,0.131l0.471,0.365c-2.301,0.227-6.679,0.648-4.613,1.251
	c-4.905-0.196-9.416,0.02-12.058-0.894c-2.102,0.605-3.276,0.316-6.477,0.289c-0.098,0.297-0.267,0.578-1.844,0.5l-1.087-0.361
	l-1.694,0.135c0.005-0.246-0.754-0.286-0.937-0.481l1.617-0.255l-1.625-0.234c0.05-0.15,0.136-0.291,0.925-0.25l0.473,0.363
	l0.453-0.369c4.319,0.186-0.641-0.8,1.839-0.744c0.277-0.497-2.676,0.069-2.773,0.264l-0.929,0.006l0.004,0.243
	c-2.691-0.332-1.039-0.181-0.918,0.494l-1.381,0.132l0.466,0.363c-2.839,0.342,1.632,1.105,2.786,0.468l1.085,0.358l1.697-0.132
	c0.283,0.495,2.513,0.461,2.795,0.956l-1.384,0.129l0.466,0.365c-4.538-0.511-11.086,0.387-17.599-0.124
	c1.974-0.093-0.165-1.064-0.947-1.214c-3.445,0.279-2.999-0.494-4.64-0.701c-0.035,1.056-5.895,1.949-6.471,0.776
	c-0.097,0.626-0.508,1.167-1.832,1.476c-1.691-0.297-3.366,0.045-7.411,0.05c-0.702-0.747,2.534-0.486,1.833-1.232
	c-2.911,0.297-2.255-0.369-3.71-0.463c-0.805,0.827-4.369-0.019-5.541,1.014l-1.395-0.114l0.474,0.364
	c-3.855,0.295-13.013,0.397-16.69-0.618c-0.832,0.434-3.229,0.467-4.618,0.763c0.923-0.74-2.073-0.418-3.71-0.462l0.459-0.37
	l-0.469-0.362c0.799-0.506-4.721-0.455-1.865-0.718c-0.385-0.016-7.436,0.023-4.623,0.519c0.313-0.002,0.619-0.004,0.928-0.006
	l-0.453,0.366l0.463,0.364c-5.878,0.06-11.51,0.341-16.671,0.113c-1.694,0.375-3.127,0.676-4.63,0.032l0.462-0.37l-0.471-0.36
	c4.047-0.783-5.078-0.269-1.85,0.013l-0.455,0.449l1.387,0.276c-0.35,1.181-4.533-0.026-7.406,0.295
	c-1.267,1.072-4.472,0.979-7.403,0.537c0.451,1.005-4.324,0.675-6.466,1.019l0.318-0.438l-1.254-0.286
	c0.09-0.276-1.353-0.373-0.006-0.488c-0.625-0.511-5.385,0.601-6.486,0.044l-1.39,0.131l-0.457,0.369
	c-1.327-0.051-1.564-0.392-2.785-0.469l-0.461,0.125l-0.457,0.125c-0.233-0.373-1.527-0.025-1.851,0.257l-1.395-0.115l0.468,0.365
	c-2.83-0.159-3.371,0.271-5.553,0.281c-1.091-0.44-2.425-0.808-3.718-1.193l-0.005-0.488l-1.85,0.012
	c2.454-0.8,0.489-1.302-0.93-0.238l-1.394-0.114l-1.387,0.133c-0.309,0.002-0.616,0.004-0.92,0.006l-1.397-0.114l0.462,0.365
	c-2.899,0.132-2.617-0.597-3.714-0.95c-0.51,0-1.05,0.203,0.003,0.244c-1.733,0.901,0.371,0.536-3.686,1.488l-1.695-0.112
	l-1.082,0.374c-0.309,0.002-0.613,0.004-0.929,0.006l-0.462-0.364l-1.39,0.133c-0.057-0.313-1.188-0.33-0.935-0.725
	c-1.182,0.021-1.273,0.321-2.778,0.262c-0.003-0.245,0.749-0.295,0.92-0.494l1.396-0.133l-1.399-0.109
	c1.322-0.721,0.718-0.281-1.852-0.232c1.851-0.864-0.41,0.024-0.929-0.482c-2.683,0.155,1.427,0.37,0.932,0.727l-1.383,0.128
	l1.385,0.114c0.055,0.417-0.702,0.628-1.845,0.745c0.002,0.243,0.755,0.284,0.932,0.48l-1.386,0.13l0.463,0.365
	c-0.928,0.006-1.85,0.012-2.778,0.019c-1.365-0.528-3.065-0.964-5.568-1.181l-0.466-0.364l-1.389,0.133
	c-0.51,0.004-1.053-0.19-0.002-0.244c-1.394-0.793-1.078,0.824-3.7,0.513l-0.928-0.116l-0.924,0.129
	c-0.052-0.15-0.142-0.289-0.927-0.237l0.462-0.371l-1.389,0.133c-0.207-0.188-0.033-0.481-0.935-0.48
	c-1.199,0.672-2.546,0.153-1.842,0.987c-0.597-0.509-3.666,0.433-5.144,0.162c-0.107-0.038-0.236-0.078-0.413-0.124
	c0.115,0.058,0.258,0.096,0.413,0.124c1.027,0.363-0.863,0.404-1.332,0.858c-1.918-0.134-6.076,0.342-6.484-0.201l1.383-0.131
	l-0.461-0.362c-0.001-0.082-0.001-0.164-0.002-0.244l1.387,0.112l-0.462-0.362c3.084,0.145,1.489-0.516,0.92-0.738
	c-0.517,0.001-1.049,0.203,0.002,0.244c-0.202,0.19-0.774,0.287-1.851,0.255l-0.47-0.363l-0.456,0.369
	c-0.618,0.004-1.229,0.009-1.855,0.013l-0.459,0.124l-0.46,0.127c-0.694-0.545-3.528,0.366-3.699,0.757l-1.397-0.114l-1.38,0.133
	c-1.046-0.046-1.449-0.262-1.857-0.475c-1.097,0.124-2.099,0.273-2.776,0.507l-1.391,0.131l0.47,0.363
	c-13.219-0.402-16.178,0.805-27.796-0.056l0.467-0.37l-1.393,0.133c-0.001-0.163-0.002-0.325-0.003-0.488
	c-1.268-0.004-2.024,0.13-2.774,0.263c0.001,0.08,0.001,0.161,0.002,0.243l-1.385-0.114l0.459,0.364
	c-8.376,0.555-12.685,1.231-20.37,0.383c-0.458-0.767,1.663-0.874,0.911-1.711c-4.287-0.49-10.975-0.262-14.824-1.606l0.467-0.247
	l-0.47-0.24c2.155-0.151,2.152-0.749-0.001-0.244c-0.883-0.447,2.764-0.834-0.005-0.973c-0.051,0.311-1.186,0.345-0.923,0.735
	c-2.072-0.62-4.221-0.285-6.482-0.443c1.187,0.084,0.257-0.435-0.928-0.479c-3.182-0.121-10.366,0.442-15.746-0.866
	c-0.095,0.272,1.341,0.368,0.002,0.486c-3.991-0.911-6.128-0.367-12.041-0.404c-0.096-0.755,1.128-1.172,1.847-1.718
	c-1.633,0.752-2.878-0.645-3.706,0.025c0.956,0.028-2.625,0.93-2.768,1.48c-4.205-0.861-5.907,0.044-6.494-0.93
	c-0.189,0.295-1.022,0.156-1.851,0.012c-0.085,0.274,1.349,0.368,0.002,0.488c-1.559-0.507-4.361-0.346-10.965-0.886l0.466-0.246
	l-0.468-0.239c0.989-0.236,0.288-0.901,2.774-0.752l0.925,0.116c0,0,0.927-0.129,3.703-0.389c-1.266-0.004-2.025,0.126-2.776,0.26
	l-0.462-0.361L2.431,86.5H0.095v-87h1368v87H1367.959z M1041.784,91.204c-0.258-0.631-1.583,0.348-3.704,0.025
	C1038.245,91.839,1041.218,91.28,1041.784,91.204z M1009.607,97.059 M890.973,96.635 M819.616,96.381 M589.695,90.602
	 M531.383,92.464c-0.922-0.803-1.823,0.285-2.774,0.264C529.146,93.431,530.055,92.342,531.383,92.464z M485.101,93.756
	 M473.985,93.587c-0.93-0.742-3.122,0.131-3.698,0.269C471.204,94.597,472.741,93.558,473.985,93.587z M432.308,94.114
	c-1.006,0.065-0.618,0.489-1.841,0.501C431.293,95.27,434.572,94.38,432.308,94.114z M427.667,93.657
	c-0.064-0.458,0.703-0.522,1.845-0.256l0.933,0.115l0.922-0.127c0.055,0.254,1.192,0.183,0.921-0.251
	c3.38-0.152,4.178,1.043,6.489,0.444c0.009-0.136-0.754-0.274-0.925,0.006c-2.526-0.205,2.805-0.565-0.02-0.976
	c-2.17,0.09-3.461,0.407-6.475,0.289l-0.467-0.365l-1.393,0.133c-2.528-0.26-8.075-0.57-10.189-0.174
	C421.05,93.165,424.404,93.399,427.667,93.657z M409.117,92.317c-1.701-0.872-2.552,0.449-4.628,0.277
	C405.893,93.392,406.743,92.07,409.117,92.317z M385.97,92.72c-2.035-0.495,0.793-0.797-0.954-1.215
	c-1.052,0.054-0.508,0.248,0.005,0.245C383.767,92.177,382.044,92.729,385.97,92.72z M377.632,93.02 M324.824,91.671
	c-0.084-0.065-0.875-0.256-0.92,0.494C323.893,92.359,325.989,92.652,324.824,91.671z M322.024,90.469
	c0.72-0.057,1.079-0.212,0.918-0.493l1.39,0.111l-0.467-0.361c1.786-0.978-1.18-0.761-0.927,0.006l-0.928-0.117l-0.921,0.13
	c-0.522,0.002-1.049,0.202,0.004,0.244C318.257,91.128,320.469,90.182,322.024,90.469z M298.895,91.847
	c-0.234-0.429-1.603-0.545-3.709-0.463C295.794,91.706,297.168,91.825,298.895,91.847z M279.436,91.492
	c-0.053-0.017,0.062-0.243-0.003-0.244C274.99,91.071,283.855,92.786,279.436,91.492z M272.966,92.512
	c-0.307-0.148,0.537-0.312,0.922-0.251C269.908,91.643,271.758,93.156,272.966,92.512z M259.115,92.135
	c0.205,0.083,1.023,0.462,0.886,0.465c1.177-0.035,1.178-0.423,1.845-0.501C266.384,91.578,259.788,92.149,259.115,92.135
	c-0.026-0.011-0.044-0.017-0.047-0.016C259.028,92.129,259.057,92.133,259.115,92.135z M232.205,91.081 M218.347,94.102
	 M158.1,89.395c-0.987-0.222-0.295-0.898-2.783-0.713C156.307,88.902,155.612,89.577,158.1,89.395z M147.905,88.733
	c3.717,1.369-1.96-1.523-1.852,0.013C146.08,89.137,150.908,89.837,147.905,88.733z M118.318,93.806
	c-2.811-0.261,0.227-0.96-2.781-0.469C116.467,93.72,116.42,94.312,118.318,93.806z M75.71,92.878"/>
</svg>
