<?xml version="1.0" encoding="utf-8"?>
<!-- Generator: Adobe Illustrator 17.0.0, SVG Export Plug-In . SVG Version: 6.00 Build 0)  -->
<!DOCTYPE svg PUBLIC "-//W3C//DTD SVG 1.1//EN" "http://www.w3.org/Graphics/SVG/1.1/DTD/svg11.dtd">
<svg version="1.1" id="Layer_1" xmlns="http://www.w3.org/2000/svg" xmlns:xlink="http://www.w3.org/1999/xlink" x="0px" y="0px"
	 width="31.875px" height="30px" viewBox="0 0 31.875 30" enable-background="new 0 0 31.875 30" xml:space="preserve">
<path fill="#FFFFFF" d="M6.242,6.115c-1.306,0-2.382,1.129-2.382,2.499v12.772c0,1.37,1.076,2.499,2.382,2.499h19.582
	c1.306,0,2.382-1.129,2.382-2.499V8.614c0-1.37-1.076-2.499-2.382-2.499H6.242z M6.242,7.781h19.582
	c0.454,0,0.794,0.357,0.794,0.833v12.772c0,0.476-0.34,0.833-0.794,0.833H6.242c-0.453,0-0.794-0.357-0.794-0.833V8.614
	C5.448,8.138,5.788,7.781,6.242,7.781z M24.559,9.404c-0.218-0.003-0.427,0.088-0.579,0.252l-7.327,6.759
	c-0.365,0.337-0.894,0.336-1.257,0l-7.31-6.759C7.929,9.505,7.72,9.426,7.507,9.439c-0.438,0.03-0.77,0.425-0.741,0.884
	c0.014,0.226,0.114,0.436,0.278,0.582l4.267,3.956l-4.292,4.251c-0.335,0.297-0.378,0.822-0.095,1.174
	c0.283,0.352,0.784,0.396,1.119,0.1c0.024-0.021,0.046-0.044,0.068-0.067l4.399-4.356l1.836,1.701c0.953,0.882,2.404,0.88,3.358,0
	l1.852-1.709l4.399,4.364c0.3,0.336,0.802,0.353,1.122,0.039c0.32-0.315,0.337-0.842,0.037-1.177
	c-0.021-0.024-0.044-0.046-0.068-0.067l-4.3-4.26l4.275-3.948c0.352-0.275,0.424-0.797,0.163-1.166
	C25.037,9.531,24.806,9.408,24.559,9.404z"/>
</svg>
