<?xml version="1.0" encoding="utf-8"?>
<!-- Generator: Adobe Illustrator 19.0.0, SVG Export Plug-In . SVG Version: 6.00 Build 0)  -->
<svg version="1.1" id="Layer_1" xmlns="http://www.w3.org/2000/svg" xmlns:xlink="http://www.w3.org/1999/xlink" x="0px" y="0px"
	 viewBox="0 0 69.3 48.3" style="enable-background:new 0 0 69.3 48.3;" xml:space="preserve">
<style type="text/css">
	.st0{fill:none;}
</style>
<g>
	<path class="st0" d="M3.1,32.4c0,0.2,0,0.3,0,0.5c0,0.1,0,0.1,0,0.2c0,0.1,0,0.2,0,0.3l0,0c0.5,7.3,6.7,13,14.2,12.8
		c7.7-0.2,13.7-6.5,13.5-14.1c-0.2-6.9-5.5-12.4-12.3-13.2c1.5-5.5,6.5-9.6,12.6-9.8L31,4.1C15.5,4.6,3.2,17.1,3.1,32.4z"/>
	<path class="st0" d="M39.1,31.3c0,0.2,0,0.3,0,0.5c0,0.1,0,0.1,0,0.2c0,0.1,0,0.2,0,0.3l0,0c0.5,7.3,6.7,13,14.2,12.8
		C61,44.9,67,38.6,66.8,31c-0.2-6.9-5.5-12.4-12.3-13.2C56,12.3,61,8.2,67.1,8L67,3.1C51.4,3.6,39.2,16.1,39.1,31.3z"/>
</g>
</svg>
